<?xml version="1.0" encoding="iso-8859-1" standalone="no" ?>
<?xml-stylesheet type="text/css" href="../css/svg1.css" ?>
    <?xml-stylesheet type="text/css" href="../css/main1.css" ?>
        <svg version="1.1" xmlns="http://www.w3.org/2000/svg" xmlns:xlink="http://www.w3.org/1999/xlink" viewBox="0 0 600 650" preserveAspectRatio="xMidYMid meet" id="aboutGraph2">


  <defs>
    <mask id="portaitMask" maskUnits="userSpaceOnUse"
        x="225" y="225" width="150" height="150">
      <circle cx="300" cy="300" r="65" fill="white"/>
    </mask>
  </defs>
            
<g transform="translate(17,20)">
<rect x="0" y="0" width="600" height="630" style="fill:var(--white);stroke-width:0;stroke:rgb(0,0,0);" ry="5px" rx="5px"/>

    
    
<g id="aboutGraphMain" transform="translate(0,20)">   

<g transform="rotate(-12 300,300)">
  <path style="fill:#0099c6;stroke:#0099c6;stroke-width:0;fill-opacity:1;"
          d="M300, 300 L425, 516 A 200 300 -340 0 1 118 195 Z"/>

          <circle cx="300" cy="300" r="284" style="fill:none;stroke-width:150;stroke:var(--white);"/>

  <path style="fill:#FD8A5E;stroke:#FD8A5E;stroke-width:0;fill-opacity:1;"
          d="M300, 300 L516, 175 A 200 300 -270 0 1 516 429 Z"/>

          <path style="fill:#FD8A5E;stroke:#FD8A5E;stroke-width:0;fill-opacity:1;"
                  d="M300, 300 L516 427 A 200 300 -180 0 1 425 516 Z"/>

                  <circle cx="300" cy="300" r="331" style="fill:none;stroke-width:150;stroke:var(--white);"/>

            <!--   40 50           <path style="fill:#FF598F;stroke:#FF598F;stroke-width:0;fill-opacity:1;"
                                  d="M300, 300 L1, 300 A 200 300 -340 0 1 40 150 Z"/>

                                  <path style="fill:#0099c6;stroke:#0099c6;stroke-width:0;fill-opacity:1;"
                                          d="M300, 300 L84, 175 A 200 300 -340 0 1 300 50 Z"/> -->

        <path style="fill:#E0E300;stroke:#E0E300;stroke-width:0;fill-opacity:1;"
                d="M300, 300 L175, 84 A 200 300 -340 0 1 300 50 Z"/>


                <circle cx="300" cy="300" r="270" style="fill:none;stroke-width:50;stroke:var(--white);"/>


                <path style="fill:#FF598F;stroke:#FF598F;stroke-width:0;fill-opacity:1;"
                        d="M300, 300 L40, 150 A 200 300 -340 0 1 150 40 Z"/>

                        <circle cx="300" cy="300" r="310" style="fill:none;stroke-width:50;stroke:var(--white);"/>



          <circle cx="300" cy="300" r="168" style="fill:none;stroke-width:10;stroke:#999999;"/>





                  <path style="fill:#0099c6;stroke:#0099c6;stroke-width:0;fill-opacity:1;"
                          d="M300, 300 L126 301 A 200 300 -250 0 1 150 213 Z"/>

<circle cx="300" cy="300" r="157" style="fill:none;stroke-width:10;stroke:#888888;"/>

<path style="fill:#0099c6;stroke:#0099c6;stroke-width:0;fill-opacity:1;"
        d="M300, 300 L149 387 A 200 300 -140 0 1 124 300 Z"/>

          <path style="fill:#0099c6;stroke:#0099c6;stroke-width:0;fill-opacity:1;"
                  d="M300, 300 L213 450 A 200 300 -160 0 1 148 387 Z"/>

          <path style="fill:#0099c6;stroke:#0099c6;stroke-width:0;fill-opacity:1;"
                  d="M300, 300 L300 473 A 200 300 -190 0 1 211 450 Z"/>

          <path style="fill:#0099c6;stroke:#0099c6;stroke-width:0;fill-opacity:1;"
                  d="M300, 300 L387, 450 A 200 300 -200 0 1 297 475 Z"/>




                  <path style="fill:#FD8A5E;stroke:#FD8A5E;stroke-width:0;fill-opacity:1;"
                          d="M300, 300 L450, 387 A 200 300 -255 0 1 387 450 Z"/>



                          <circle cx="300" cy="300" r="146" style="fill:none;stroke-width:10;stroke:#777777;"/>
                          <circle cx="300" cy="300" r="135" style="fill:none;stroke-width:10;stroke:#666666;"/>


          <path style="fill:#FD8A5E;stroke:#FD8A5E;stroke-width:0;fill-opacity:1;"
                  d="M300, 300 L473, 300 A 200 300 -230 0 1 450 388 Z"/>

          <path style="fill:#FD8A5E;stroke:#FD8A5E;stroke-width:0;fill-opacity:1;"
                  d="M300, 300 L450, 213 A 200 300 -255 0 1 473 301 Z"/>


          <circle cx="300" cy="300" r="124" style="fill:none;stroke-width:10;stroke:#555555;"/>
          <circle cx="300" cy="300" r="113" style="fill:none;stroke-width:10;stroke:#444444;"/>
          <circle cx="300" cy="300" r="102" style="fill:none;stroke-width:10;stroke:#333333;"/>
          <circle cx="300" cy="300" r="91" style="fill:none;stroke-width:10;stroke:#222222;"/>


          <path style="fill:var(--white);stroke:var(--white);stroke-width:0;fill-opacity:1;"
                  d="M300, 300 L340, 116 A 200 300 -180 0 1 455 210 Z"/>


</g>


<text x="303" y="213" class="skillTag" text-anchor="start" style="fill:#222222;">LINGUISTICS</text>
<text x="303" y="202" class="skillTag" text-anchor="start" style="fill:#333333;">HTML CSS</text>
<text x="303" y="191" class="skillTag" text-anchor="start" style="fill:#444444;">PHP JS</text>
<text x="303" y="180" class="skillTag" text-anchor="start" style="fill:#555555;">DATA</text>
<text x="303" y="169" class="skillTag" text-anchor="start" style="fill:#666666;">PYTHON</text>
<text x="303" y="158" class="skillTag" text-anchor="start" style="fill:#777777;">NLP</text>
<text x="303" y="147" class="skillTag" text-anchor="start" style="fill:#888888;">SQL/NOSQL</text>
<text x="303" y="136" class="skillTag" text-anchor="start" style="fill:#999999;">JAVA</text>



<text x="435" y="285" class="legendTimeLine" text-anchor="start">UT Austin</text>
<text x="435" y="295" class="positionTitle" text-anchor="start">PhD LINGUISTICS</text>
<text x="435" y="310" class="timeLineSubtext" text-anchor="start">Pattern Recognition</text>
<text x="435" y="320" class="timeLineSubtext" text-anchor="start">for Intonation</text>
<text x="435" y="330" class="timeLineSubtext2" text-anchor="start">Phonetics, Phonology,</text>
<text x="435" y="340" class="timeLineSubtext2" text-anchor="start">Fuzzy Logic</text>

<text x="200" y="455" class="legendTimeLine" text-anchor="start">Intel</text>
<text x="200" y="465" class="positionTitle" text-anchor="start">LINGUIST &amp; SOFTWARE ENGINEER</text>
<text x="200" y="480" class="timeLineSubtext" text-anchor="start" >Intel Real Speech | Oakley's Radar Pace</text>
<text x="300" y="490" class="timeLineSubtext2" text-anchor="middle">Conversational interface:</text>
<text x="300" y="500" class="timeLineSubtext2" text-anchor="middle">NLP, Data, Semantics</text>
<a href="http://www.oakley.com/radar-pace" target="_blank" class="svgLink">
  <text x="333" y="541" class="timeLineSubtextLink" text-anchor="start" >www.oakley.com/radar-pace </text>
</a>

<text x="55" y="185" class="positionTitle" text-anchor="start">PATERNAL LEAVE</text>

<text x="154" y="118" class="legendTimeLine" text-anchor="start">Indeed</text>
<text x="154" y="128" class="positionTitle" text-anchor="start">TAXONOMY ANALYST</text>





<path d="M 300 505 L 330 537 L 315 505 Z" style="fill:#0099c6;stroke:#0099c6;stroke-width:1;"/>
<path d="M 520 405 L 520 450 L 510 420 Z" style="fill:#FD8A5E;stroke:#FD8A5E;stroke-width:1;"/>
<path d="M 40 215 L 50 252 L 50 215 Z" style="fill:#FF598F;stroke:#FF598F;stroke-width:1;"/>



  <a href="../documents/bacuezDissertation2012.pdf" target="_blank">
  <g id="thesisPdf" transform="translate(505.000000,455.000000) scale(0.070000,0.07000)" >
  <path style="fill:#E2E5E7;" d="M128,0c-17.6,0-32,14.4-32,32v448c0,17.6,14.4,32,32,32h320c17.6,0,32-14.4,32-32V128L352,0H128z"/>
  <path style="fill:#B0B7BD;" d="M384,128h96L352,0v96C352,113.6,366.4,128,384,128z"/>
  <polygon style="fill:#CAD1D8;" points="480,224 384,128 480,128 "/>
  <path style="fill:#F15642;" d="M416,416c0,8.8-7.2,16-16,16H48c-8.8,0-16-7.2-16-16V256c0-8.8,7.2-16,16-16h352c8.8,0,16,7.2,16,16
    V416z"/>
  <g>
    <path style="fill:#FFFFFF;" d="M101.744,303.152c0-4.224,3.328-8.832,8.688-8.832h29.552c16.64,0,31.616,11.136,31.616,32.48
      c0,20.224-14.976,31.488-31.616,31.488h-21.36v16.896c0,5.632-3.584,8.816-8.192,8.816c-4.224,0-8.688-3.184-8.688-8.816V303.152z
       M118.624,310.432v31.872h21.36c8.576,0,15.36-7.568,15.36-15.504c0-8.944-6.784-16.368-15.36-16.368H118.624z"/>
    <path style="fill:#FFFFFF;" d="M196.656,384c-4.224,0-8.832-2.304-8.832-7.92v-72.672c0-4.592,4.608-7.936,8.832-7.936h29.296
      c58.464,0,57.184,88.528,1.152,88.528H196.656z M204.72,311.088V368.4h21.232c34.544,0,36.08-57.312,0-57.312H204.72z"/>
    <path style="fill:#FFFFFF;" d="M303.872,312.112v20.336h32.624c4.608,0,9.216,4.608,9.216,9.072c0,4.224-4.608,7.68-9.216,7.68
      h-32.624v26.864c0,4.48-3.184,7.92-7.664,7.92c-5.632,0-9.072-3.44-9.072-7.92v-72.672c0-4.592,3.456-7.936,9.072-7.936h44.912
      c5.632,0,8.96,3.344,8.96,7.936c0,4.096-3.328,8.704-8.96,8.704h-37.248V312.112z"/>
  </g>
  </g>
  </a>

<a href="../exhibition.php" target="_top">
  <image xlink:href="../images/henry20180803.jpg" x="30" y="250" height="70" width="40" id="svgPolaroidHenry"/>
</a>
    <circle cx="300" cy="300" r="75" style="fill:none;stroke-width:20;stroke:#222222;"/>

<g transform="rotate(-12 300,300)">
    <path d="M 297 300 L 447 213" style="fill:none;stroke:var(--white);stroke-width:3;"/>
    <path d="M 297 299 L 450 386" style="fill:none;stroke:#FD8A5E;stroke-width:3;"/>
    <path d="M 301 300 L 423 511" style="fill:none;stroke:#FD8A5E;stroke-width:3;"/>
    <path d="M 303 300 L 152 387" style="fill:none;stroke:#0099c6;stroke-width:3;"/>
    <path d="M 303 300 L 123 301" style="fill:none;stroke:#0099c6;stroke-width:3;"/>
    <path d="M 303 302 L 150 215" style="fill:none;stroke:#0099c6;stroke-width:3;"/>
    <path d="M 300 298 L 157 56" style="fill:none;stroke:#FF598F;stroke-width:3;"/>
    <path d="M 300 300 L 300 55" style="fill:none;stroke:#E0E300;stroke-width:3;"/>
</g>

<image xlink:href="nicholasTinSmall.jpg" x="225" y="225" height="150" width="150" mask="url(#portaitMask)"/>
    <circle cx="300" cy="300" r="70" style="fill:none;stroke-width:12;stroke:#222222;"/>


<g transform="rotate(-12 300,300)">
<text x="365" y="264" class="positionTitle" text-anchor="start" transform="rotate(58 365 264)">10</text>
<text x="364" y="339" class="positionTitle" text-anchor="start" transform="rotate(130 364 339)">12</text>
<text x="336" y="365" class="positionTitle" text-anchor="start" transform="rotate(155 336 365)">13</text>
<text x="234" y="336" class="positionTitle" text-anchor="start" transform="rotate(248 234 336)">15</text>
<text x="224" y="298" class="positionTitle" text-anchor="start" transform="rotate(275 224 298)">16</text>
<text x="235" y="260" class="positionTitle" text-anchor="start" transform="rotate(310 235 260)">17</text>
<text x="265" y="233" class="positionTitle" text-anchor="start" transform="rotate(340 265 233)">18</text>
</g>







  <!--



  <g id="glasses" transform="translate(-171.000000,-36.50000) scale(0.50000,0.5000)">
  <path fill="#E0E300" d="M638.7,319.5c-0.1-0.8-0.5-1.4-1.3-1.6c-0.6-0.1-1.2-0.4-1.8-0.5c-9.7-2-19.5-2.9-29.4-3.1
  	c-10.8-0.3-21.5,0.8-32.1,2.7c-7.7,1.4-15.4,1.4-23,0c-10.4-1.9-20.9-3-29.5-2.8c-9.9,0.2-17.9,0.8-25.8,2.1c-2.4,0.4-4.9,1-7.3,1.5
  	c-1,0.2-1.6,0.8-1.7,1.9c-0.3,3.9-0.4,7.7,0,11.6c0.2,1.6,0.4,1.8,2,2.1c1.8,0.4,3,1.4,3.4,3.2c0.1,0.4,0.2,0.8,0.3,1.2
  	c0.6,2.8,1.2,5.6,1.9,8.4c0.5,2.1,1.7,3.6,3.6,4.5c1.2,0.6,2.5,1.1,3.8,1.4c4.3,1.1,8.7,1.4,13.1,1.7c2.2,0.1,4.5,0,6.7-0.1
  	c2.6-0.1,5.2-0.1,7.7-0.3c3.8-0.2,7.6-0.6,11.3-1.4c3.3-0.7,5.9-2.5,7.4-5.5c1.1-2.2,2.2-4.4,3.2-6.6c1.6-3.6,3.1-7.2,4.8-10.8
  	c0.4-0.9,1-1.7,1.7-2.3c1.9-1.7,4.2-1.7,6.6-1.4c2,0.2,3.6,1.2,4.7,3c0.6,1.1,1.2,2.2,1.7,3.3c2,4.5,3.9,9,5.9,13.5
  	c1.7,3.9,4.6,6.2,8.8,7c6.9,1.4,13.9,1.3,20.8,1.7c3.9,0.2,7.7-0.4,11.6-0.7c3-0.3,5.9-0.8,8.7-1.9c2.5-1,4.2-2.7,4.8-5.4
  	c0.6-2.8,1.3-5.6,1.9-8.4c0.5-2.4,1.7-3.8,4.2-4.2c0.9-0.1,1.3-0.6,1.4-1.5C639.2,327.6,639.1,323.5,638.7,319.5z M551.4,325.4
  	c-0.3,1.8-0.8,3.7-1.4,5.4c-1.4,3.7-2.9,7.3-4.3,10.9c-0.4,0.9-0.9,1.7-1.3,2.6c-1.3,2.6-3.5,4-6.3,4.6c-6,1.3-12.1,1.6-18.1,1.6
  	c-5.2,0-10.3-0.3-15.4-1.3c-1.2-0.2-2.3-0.6-3.5-1.1c-2.2-0.8-3.5-2.4-3.9-4.7c-0.4-2.3-0.8-4.6-1-7c-0.2-2.8-0.2-5.6-0.2-8.4
  	c0-1.7,0.1-3.5,0.3-5.2c0.1-1.6,1.1-2.6,2.6-3.2c2.5-0.9,5.1-1.4,7.7-1.6c5.8-0.6,11.6-1.1,17.4-1c5.2,0,10.4,0.1,15.6,1
  	c2.8,0.5,5.5,1.4,8.2,2.2c0.5,0.1,0.9,0.4,1.3,0.7C550.9,322,551.7,323.5,551.4,325.4z M628.6,342.7c-0.5,3.3-2.5,5.2-5.6,6.1
  	c-3.2,0.9-6.5,1.2-9.7,1.5c-8,0.6-16,0.3-23.9-0.9c-1.4-0.2-2.7-0.6-4-1.1c-1.8-0.6-3.2-1.8-4-3.4c-1.3-2.7-2.7-5.4-3.8-8.2
  	c-1.2-2.9-2.2-6-3.2-9c-0.3-0.8-0.4-1.6-0.5-2.5c-0.2-2,0.6-3.5,2.4-4.4c2.6-1.3,5.4-2.1,8.3-2.7c5.5-1,11.2-1.1,18.1-1.2
  	c5.8,0.1,12.1,0.2,20,1.6c1.5,0.3,2.9,0.8,4.3,1.2c1.2,0.4,1.9,1.2,2.1,2.5c0.2,1.8,0.3,3.6,0.4,5.3c0.1,0.9,0.1,1.9,0.1,2.8
  	C629.6,334.7,629.2,338.7,628.6,342.7z"/>
  </g>
-->


<!--
  <g id="myFace" transform="translate(-15.000000,270.000000) scale(0.130000,-0.13000)"
  fill="#dadabc" stroke="#dadabc" stroke-width="30">
  <path d="M640 1953 c-55 -10 -145 -48 -200 -84 -67 -43 -104 -88 -131 -159
  -27 -71 -26 -244 1 -358 24 -100 24 -102 4 -102 -9 0 -31 -15 -50 -34 -30 -30
  -34 -40 -34 -85 0 -42 5 -57 25 -76 27 -27 76 -33 94 -12 8 11 5 13 -19 9 -48
  -7 -80 20 -80 68 0 56 18 87 61 107 29 14 37 23 33 38 -2 11 -11 63 -19 115
  -43 270 12 433 171 511 56 28 80 34 157 37 293 14 463 -154 503 -498 7 -64 24
  -96 56 -105 38 -12 58 -36 58 -71 0 -36 -22 -56 -71 -68 -15 -3 -29 -12 -32
  -19 -2 -7 13 -68 34 -137 46 -147 65 -276 49 -325 -23 -68 -145 -148 -268
  -174 -29 -6 -106 -11 -171 -11 -257 0 -314 56 -391 380 -38 160 -41 169 -47
  154 -2 -6 12 -83 31 -170 19 -88 37 -173 41 -191 4 -18 18 -49 31 -69 14 -20
  24 -37 22 -38 -2 -2 -18 -8 -35 -15 -74 -30 -155 -156 -212 -329 -33 -98 -48
  -202 -33 -228 7 -12 12 4 22 67 15 103 62 257 100 324 29 50 89 114 145 152
  l29 21 31 -23 c77 -58 250 -80 413 -51 110 19 189 55 247 112 49 47 64 46 115
  -12 58 -67 90 -126 126 -239 26 -79 37 -134 41 -195 5 -110 12 -150 23 -150
  15 0 11 138 -5 210 -19 79 -77 245 -106 301 -31 62 -109 141 -132 135 -14 -3
  -17 -1 -12 12 20 48 26 89 20 136 -9 69 -40 193 -69 272 l-24 65 54 24 54 24
  0 46 c0 38 -5 52 -29 76 -16 16 -39 29 -50 29 -23 0 -21 -5 -45 140 -31 191
  -85 288 -210 374 -101 69 -231 106 -316 89z"/>
  <path d="M980 1256 c0 -8 5 -18 10 -21 6 -3 10 1 10 9 0 8 -4 18 -10 21 -5 3
  -10 -1 -10 -9z"/>
  <path d="M590 1180 c0 -11 7 -20 15 -20 8 0 15 9 15 20 0 11 -7 20 -15 20 -8
  0 -15 -9 -15 -20z"/>
  <path d="M845 1140 c-4 -6 8 -10 28 -10 26 0 37 -6 48 -26 14 -28 10 -34 -47
  -71 -18 -11 -17 -12 7 -12 29 -1 69 36 69 63 0 41 -86 87 -105 56z"/>
  <path d="M970 983 c-58 -13 -165 -35 -238 -48 -121 -21 -162 -35 -162 -54 0
  -4 46 2 103 15 56 12 177 38 268 58 92 20 176 36 188 36 11 0 21 5 21 10 0 16
  -66 10 -180 -17z"/>
  <path d="M508 137 c-13 -30 -10 -143 2 -131 6 6 10 41 8 80 -2 43 -6 62 -10
  51z"/>
  <path d="M1346 42 c-5 -18 -5 -36 -2 -39 7 -7 19 43 13 59 -2 7 -7 -2 -11 -20z"/>
</g>-->



  <text x="15" y="525" class="timeLineSubtext" text-anchor="start">Austin, TX</text>
  <text x="15" y="540" class="timeLineSubtext" text-anchor="start">www.nicholasbacuez.com</text>
  <text x="15" y="555" class="timeLineSubtext" text-anchor="start">nicholasbacuez@gmail.com</text>
    
  <text x="303" y="85" class="aboutSvgTextA" text-anchor="start" style="fill:#555555;">LINGUISTICS</text>
  <text x="303" y="100" class="aboutSvgTextA" text-anchor="start" style="fill:#777777;">PROGRAMMING</text>
  <text x="303" y="115" class="aboutSvgTextA" text-anchor="start" style="fill:#999999;">DESIGN</text>
  <text x="303" y="130" class="aboutSvgTextB" text-anchor="start" style="fill:#8a8a8a;"></text>
  <text x="303" y="145" class="aboutSvgTextB" text-anchor="start" style="fill:#999999;"></text>

<!--
  <g fill-rule="evenodd" stroke-width="1pt" transform="translate(400.000000,260.000000) scale(0.050000,0.05000)">
    <path fill="#fff" d="M0 0h640v480H0z"/>
    <path fill="#0099c6" d="M0 0h213.337v480H0z"/>
    <path fill="#dc3912" d="M426.662 0H640v480H426.662z"/>
  </g>

  <g fill-rule="evenodd" transform="translate(350.000000,260.000000) scale(0.050000,0.05000)">
    <g stroke-width="1pt">
      <path d="M0 0h972.81v39.385H0zm0 78.77h972.81v39.385H0zm0 78.77h972.81v39.385H0zm0 78.77h972.81v39.385H0zm0 78.77h972.81v39.385H0zm0 78.77h972.81v39.385H0zm0 78.77h972.81v39.385H0z" fill="#dc3912" transform="scale(.9375)"/>
      <path d="M0 39.385h972.81V78.77H0zm0 78.77h972.81v39.385H0zm0 78.77h972.81v39.385H0zm0 78.77h972.81v39.385H0zm0 78.77h972.81v39.385H0zm0 78.77h972.81v39.385H0z" fill="#fff" transform="scale(.9375)"/>
    </g>
    <path fill="#0099c6" d="M0 0h389.12v275.69H0z" transform="scale(.9375)"/>
    <g fill="#fff">
      <path d="M32.427 11.8l3.54 10.896h11.458l-9.27 6.735 3.541 10.896-9.27-6.734-9.268 6.734 3.54-10.896-9.269-6.735h11.457zm64.853 0l3.541 10.896h11.458l-9.27 6.735 3.541 10.896-9.27-6.734-9.268 6.734 3.54-10.896-9.269-6.735H93.74zm64.856 0l3.54 10.896h11.458l-9.27 6.735 3.541 10.896-9.269-6.734-9.269 6.734 3.54-10.896-9.269-6.735h11.458zm64.852 0l3.54 10.896h11.457l-9.269 6.735 3.54 10.896-9.268-6.734-9.27 6.734 3.541-10.896-9.27-6.735h11.458zm64.855 0l3.54 10.896h11.458l-9.27 6.735 3.541 10.896-9.27-6.734-9.268 6.734 3.54-10.896-9.269-6.735h11.457zm64.855 0l3.54 10.896h11.458l-9.27 6.735 3.541 10.896-9.269-6.734-9.27 6.734 3.542-10.896-9.27-6.735h11.458zM64.855 39.37l3.54 10.896h11.458L70.583 57l3.542 10.897-9.27-6.734-9.269 6.734L59.126 57l-9.269-6.734h11.458zm64.852 0l3.54 10.896h11.457L135.435 57l3.54 10.897-9.268-6.734-9.27 6.734L123.978 57l-9.27-6.734h11.458zm64.855 0l3.54 10.896h11.458L200.29 57l3.541 10.897-9.27-6.734-9.268 6.734L188.833 57l-9.269-6.734h11.457zm64.855 0l3.54 10.896h11.458L265.145 57l3.541 10.897-9.269-6.734-9.27 6.734L253.69 57l-9.27-6.734h11.458zm64.852 0l3.54 10.896h11.457L329.997 57l3.54 10.897-9.268-6.734-9.27 6.734L318.54 57l-9.27-6.734h11.458zM32.427 66.939l3.54 10.896h11.458l-9.27 6.735 3.541 10.896-9.27-6.734-9.268 6.734 3.54-10.896-9.269-6.735h11.457zm64.853 0l3.541 10.896h11.458l-9.27 6.735 3.541 10.896-9.27-6.734-9.268 6.734 3.54-10.896-9.269-6.735H93.74zm64.856 0l3.54 10.896h11.458l-9.27 6.735 3.541 10.896-9.269-6.734-9.269 6.734 3.54-10.896-9.269-6.735h11.458zm64.852 0l3.54 10.896h11.457l-9.269 6.735 3.54 10.896-9.268-6.734-9.27 6.734 3.541-10.896-9.27-6.735h11.458zm64.855 0l3.54 10.896h11.458l-9.27 6.735 3.541 10.896-9.27-6.734-9.268 6.734 3.54-10.896-9.269-6.735h11.457zm64.855 0l3.54 10.896h11.458l-9.27 6.735 3.541 10.896-9.269-6.734-9.27 6.734 3.542-10.896-9.27-6.735h11.458zM64.855 94.508l3.54 10.897h11.458l-9.27 6.734 3.542 10.897-9.27-6.734-9.269 6.734 3.54-10.897-9.269-6.734h11.458zm64.852 0l3.54 10.897h11.457l-9.269 6.734 3.54 10.897-9.268-6.734-9.27 6.734 3.541-10.897-9.27-6.734h11.458zm64.855 0l3.54 10.897h11.458l-9.27 6.734 3.541 10.897-9.27-6.734-9.268 6.734 3.54-10.897-9.269-6.734h11.457zm64.855 0l3.54 10.897h11.458l-9.27 6.734 3.541 10.897-9.269-6.734-9.27 6.734 3.542-10.897-9.27-6.734h11.458zm64.852 0l3.54 10.897h11.457l-9.269 6.734 3.54 10.897-9.268-6.734-9.27 6.734 3.541-10.897-9.27-6.734h11.458zm-291.842 27.57l3.54 10.896h11.458l-9.27 6.735 3.541 10.896-9.27-6.734-9.268 6.734 3.54-10.896-9.269-6.735h11.457zm64.853 0l3.541 10.896h11.458l-9.27 6.735 3.541 10.896-9.27-6.734-9.268 6.734 3.54-10.896-9.269-6.735H93.74zm64.856 0l3.54 10.896h11.458l-9.27 6.735 3.541 10.896-9.269-6.734-9.269 6.734 3.54-10.896-9.269-6.735h11.458zm64.852 0l3.54 10.896h11.457l-9.269 6.735 3.54 10.896-9.268-6.734-9.27 6.734 3.541-10.896-9.27-6.735h11.458zm64.855 0l3.54 10.896h11.458l-9.27 6.735 3.541 10.896-9.27-6.734-9.268 6.734 3.54-10.896-9.269-6.735h11.457zm64.855 0l3.54 10.896h11.458l-9.27 6.735 3.541 10.896-9.269-6.734-9.27 6.734 3.542-10.896-9.27-6.735h11.458zM64.855 149.647l3.54 10.897h11.458l-9.27 6.734 3.542 10.897-9.27-6.734-9.269 6.734 3.54-10.897-9.269-6.734h11.458zm64.852 0l3.54 10.897h11.457l-9.269 6.734 3.54 10.897-9.268-6.734-9.27 6.734 3.541-10.897-9.27-6.734h11.458zm64.855 0l3.54 10.897h11.458l-9.27 6.734 3.541 10.897-9.27-6.734-9.268 6.734 3.54-10.897-9.269-6.734h11.457zm64.855 0l3.54 10.897h11.458l-9.27 6.734 3.541 10.897-9.269-6.734-9.27 6.734 3.542-10.897-9.27-6.734h11.458zm64.852 0l3.54 10.897h11.457l-9.269 6.734 3.54 10.897-9.268-6.734-9.27 6.734 3.541-10.897-9.27-6.734h11.458zM32.427 177.217l3.54 10.896h11.458l-9.27 6.735 3.541 10.896-9.27-6.734-9.268 6.734 3.54-10.896-9.269-6.735h11.457zm64.853 0l3.541 10.896h11.458l-9.27 6.735 3.541 10.896-9.27-6.734-9.268 6.734 3.54-10.896-9.269-6.735H93.74zm64.856 0l3.54 10.896h11.458l-9.27 6.735 3.541 10.896-9.269-6.734-9.269 6.734 3.54-10.896-9.269-6.735h11.458zm64.852 0l3.54 10.896h11.457l-9.269 6.735 3.54 10.896-9.268-6.734-9.27 6.734 3.541-10.896-9.27-6.735h11.458zm64.855 0l3.54 10.896h11.458l-9.27 6.735 3.541 10.896-9.27-6.734-9.268 6.734 3.54-10.896-9.269-6.735h11.457zm64.855 0l3.54 10.896h11.458l-9.27 6.735 3.541 10.896-9.269-6.734-9.27 6.734 3.542-10.896-9.27-6.735h11.458zM64.855 204.786l3.54 10.897h11.458l-9.27 6.734 3.542 10.897-9.27-6.734-9.269 6.734 3.54-10.897-9.269-6.734h11.458zm64.852 0l3.54 10.897h11.457l-9.269 6.734 3.54 10.897-9.268-6.734-9.27 6.734 3.541-10.897-9.27-6.734h11.458zm64.855 0l3.54 10.897h11.458l-9.27 6.734 3.541 10.897-9.27-6.734-9.268 6.734 3.54-10.897-9.269-6.734h11.457zm64.855 0l3.54 10.897h11.458l-9.27 6.734 3.541 10.897-9.269-6.734-9.27 6.734 3.542-10.897-9.27-6.734h11.458zm64.852 0l3.54 10.897h11.457l-9.269 6.734 3.54 10.897-9.268-6.734-9.27 6.734 3.541-10.897-9.27-6.734h11.458zM32.427 232.356l3.54 10.896h11.458l-9.27 6.735 3.541 10.896-9.27-6.734-9.268 6.734 3.54-10.896-9.269-6.735h11.457zm64.853 0l3.541 10.896h11.458l-9.27 6.735 3.541 10.896-9.27-6.734-9.268 6.734 3.54-10.896-9.269-6.735H93.74zm64.856 0l3.54 10.896h11.458l-9.27 6.735 3.541 10.896-9.269-6.734-9.269 6.734 3.54-10.896-9.269-6.735h11.458zm64.852 0l3.54 10.896h11.457l-9.269 6.735 3.54 10.896-9.268-6.734-9.27 6.734 3.541-10.896-9.27-6.735h11.458zm64.855 0l3.54 10.896h11.458l-9.27 6.735 3.541 10.896-9.27-6.734-9.268 6.734 3.54-10.896-9.269-6.735h11.457zm64.855 0l3.54 10.896h11.458l-9.27 6.735 3.541 10.896-9.269-6.734-9.27 6.734 3.542-10.896-9.27-6.735h11.458z" transform="scale(.9375)"/>
    </g>
  </g>
-->

<!-- LANGUAGES -->
<g transform="translate(11.000000,560.000000) scale(0.350000,0.350000)" fill="#DADABC" stroke="none">
<path d="M61.312,42.443c-0.465-0.254-1.16-0.381-2.088-0.381h-4.98v5.801h4.855c0.965,0,1.688-0.117,2.17-0.352
  c0.854-0.41,1.281-1.221,1.281-2.432C62.55,43.771,62.136,42.892,61.312,42.443z"/>
  <path d="M49.562,10.357c-21.367,0-38.75,17.384-38.75,38.751c0,7.399,2.093,14.577,6.058,20.794l-6.277,16.49
    c-0.156,0.409-0.05,0.87,0.268,1.17c0.205,0.194,0.472,0.296,0.742,0.296c0.149,0,0.3-0.03,0.442-0.094l15.361-6.875
    c6.524,4.562,14.172,6.969,22.157,6.969c21.368,0,38.751-17.384,38.751-38.75C88.312,27.741,70.93,10.357,49.562,10.357z
    M46.802,42.135H35.889v4.966h9.565v3.75h-9.565v9.053h-4.482V38.341h15.396V42.135z M67.427,59.904h-4.98
    c-0.137-0.479-0.234-0.864-0.293-1.157c-0.117-0.605-0.18-1.226-0.189-1.86l-0.029-2.007c-0.02-1.377-0.258-2.295-0.715-2.754
    s-1.314-0.688-2.57-0.688h-4.406v8.467h-4.409V38.312h10.327c1.477,0.029,2.613,0.215,3.408,0.557s1.469,0.845,2.021,1.509
    c0.457,0.547,0.818,1.152,1.084,1.816c0.268,0.664,0.4,1.421,0.4,2.271c0,1.025-0.258,2.034-0.775,3.025s-1.373,1.691-2.564,2.102
    c0.996,0.4,1.701,0.969,2.117,1.707c0.414,0.737,0.623,1.863,0.623,3.377v1.45c0,0.986,0.039,1.655,0.119,2.007
    c0.119,0.557,0.396,0.967,0.832,1.23V59.904z"/>
</g>

<!-- <path d="M 47 565 L 47 592" style="fill:#DADABC;stroke-width:1px;stroke:#DADABC;"/> -->

<g transform="translate(48.000000,560.000000) scale(0.350000,0.350000)" fill="#DADABC" stroke="none">
<path d="M51.283,7.69c-21.367,0-38.75,17.384-38.75,38.751c0,7.399,2.093,14.577,6.058,20.794l-6.277,16.49
  c-0.156,0.409-0.05,0.87,0.268,1.17c0.205,0.194,0.472,0.296,0.742,0.296c0.149,0,0.3-0.03,0.442-0.094l15.361-6.875
  c6.524,4.562,14.172,6.969,22.157,6.969c21.368,0,38.751-17.384,38.751-38.75C90.034,25.074,72.651,7.69,51.283,7.69z
  M48.846,57.236H32.484V35.645h15.835v3.823H36.893v4.585h10.488v3.75H36.893v5.552h11.953V57.236z M69.793,57.236h-4.51
  l-8.791-15.32v15.32h-4.203V35.645h4.729L65.59,50.7V35.645h4.203V57.236z"/>
</g>

<g transform="translate(85.000000,572.000000) scale(0.20000,0.20000)" fill="#DADABC" stroke="none">
<path d="M49.041,9.523c-21.367,0-38.75,17.385-38.75,38.751c0,7.398,2.093,14.577,6.058,20.794l-6.277,16.49
  c-0.156,0.409-0.05,0.87,0.268,1.17c0.205,0.194,0.472,0.296,0.742,0.296c0.149,0,0.3-0.029,0.442-0.094l15.361-6.875
  c6.524,4.562,14.172,6.969,22.156,6.969c21.368,0,38.751-17.384,38.751-38.75S70.411,9.523,49.041,9.523z M46.896,59.106H30.535
  V37.515H46.37v3.822H34.944v4.585h10.488v3.75H34.944v5.553h11.953V59.106z M64.97,57.709c-1.523,1.303-3.68,1.955-6.463,1.955
  c-2.843,0-5.078-0.644-6.707-1.926c-1.629-1.285-2.442-3.051-2.442-5.297h4.307c0.14,0.986,0.414,1.725,0.824,2.213
  c0.746,0.889,2.027,1.332,3.842,1.332c1.086,0,1.97-0.117,2.647-0.352c1.285-0.449,1.932-1.284,1.932-2.506
  c0-0.713-0.316-1.264-0.945-1.654c-0.631-0.381-1.63-0.719-2.999-1.012l-2.338-0.513c-2.297-0.508-3.875-1.059-4.734-1.655
  c-1.455-0.996-2.184-2.554-2.184-4.673c0-1.933,0.714-3.54,2.137-4.818c1.423-1.279,3.514-1.919,6.271-1.919
  c2.303,0,4.269,0.603,5.896,1.809s2.479,2.956,2.559,5.251h-4.336c-0.08-1.299-0.662-2.222-1.743-2.769
   c-0.721-0.361-1.617-0.543-2.688-0.543c-1.191,0-2.143,0.234-2.854,0.703c-0.711,0.47-1.066,1.123-1.066,1.963
   c0,0.772,0.352,1.349,1.051,1.729c0.451,0.254,1.406,0.552,2.869,0.894l3.79,0.895c1.66,0.39,2.904,0.913,3.734,1.567
   c1.287,1.016,1.93,2.485,1.928,4.409C67.257,54.767,66.495,56.404,64.97,57.709z"/>
</g>

<!-- MAP -->
<g transform="translate(-10.000000,540.000000) scale(0.0350000,-0.0350000)"
fill="#DADABC" stroke="none">
<path d="M962 2674 c-38 -26 -22 -74 25 -74 24 0 48 33 39 55 -10 26 -41 35
-64 19z"/>
<path d="M1312 2683 c-22 -8 -34 -41 -22 -63 20 -38 87 -16 78 26 -4 20 -38
43 -56 37z"/>
<path d="M3819 2671 c-21 -16 -22 -22 -11 -45 8 -17 19 -26 36 -26 47 0 61 50
20 77 -19 12 -24 11 -45 -6z"/>
<path d="M1060 2661 c-14 -26 -3 -50 26 -57 42 -11 72 34 42 64 -18 18 -56 14
-68 -7z"/>
<path d="M1182 2668 c-30 -30 0 -75 42 -64 29 7 40 31 26 57 -12 21 -50 25
-68 7z"/>
<path d="M1404 2655 c-12 -50 41 -75 70 -33 21 30 4 58 -34 58 -23 0 -31 -5
-36 -25z"/>
<path d="M2442 2668 c-30 -30 0 -75 42 -64 29 7 40 31 26 57 -12 21 -50 25
-68 7z"/>
<path d="M842 2558 c-34 -34 6 -90 48 -68 35 19 20 80 -20 80 -9 0 -21 -5 -28
-12z"/>
<path d="M952 2558 c-17 -17 -15 -42 6 -61 24 -22 35 -21 55 1 21 23 21 36 1
56 -18 19 -45 21 -62 4z"/>
<path d="M1066 2549 c-17 -24 -12 -45 14 -59 25 -14 49 -2 56 26 12 48 -41 73
-70 33z"/>
<path d="M1180 2555 c-15 -18 -6 -61 16 -69 39 -15 75 35 48 65 -21 23 -47 24
-64 4z"/>
<path d="M1296 2554 c-23 -22 -20 -41 9 -60 24 -16 27 -16 45 1 23 20 26 45 8
63 -17 17 -44 15 -62 -4z"/>
<path d="M1412 2558 c-33 -33 6 -91 47 -69 27 15 32 35 15 60 -17 23 -44 27
-62 9z"/>
<path d="M1518 2545 c-9 -21 -8 -28 7 -45 10 -11 23 -20 30 -20 7 0 20 9 30
20 25 28 7 70 -30 70 -17 0 -29 -8 -37 -25z"/>
<path d="M1642 2558 c-34 -34 6 -90 48 -68 35 19 20 80 -20 80 -9 0 -21 -5
-28 -12z"/>
<path d="M1756 2554 c-23 -22 -20 -41 9 -60 24 -16 27 -16 45 1 23 20 26 45 8
63 -17 17 -44 15 -62 -4z"/>
<path d="M1872 2558 c-33 -33 6 -91 47 -69 27 15 32 35 15 60 -17 23 -44 27
-62 9z"/>
<path d="M1978 2545 c-9 -21 -8 -28 7 -45 10 -11 23 -20 30 -20 7 0 20 9 30
20 25 28 7 70 -30 70 -17 0 -29 -8 -37 -25z"/>
<path d="M2102 2558 c-34 -34 6 -90 48 -68 35 19 20 80 -20 80 -9 0 -21 -5
-28 -12z"/>
<path d="M2212 2558 c-17 -17 -15 -42 6 -61 24 -22 35 -21 55 1 21 23 21 36 1
56 -18 19 -45 21 -62 4z"/>
<path d="M2326 2551 c-19 -21 -13 -47 14 -61 25 -14 49 -2 56 26 12 47 -37 72
-70 35z"/>
<path d="M2440 2555 c-15 -18 -6 -61 16 -69 39 -15 75 35 48 65 -21 23 -47 24
-64 4z"/>
<path d="M2556 2555 c-21 -22 -20 -38 5 -61 22 -20 43 -13 63 19 24 38 -35 74
-68 42z"/>
<path d="M2672 2558 c-34 -34 6 -90 48 -68 35 19 20 80 -20 80 -9 0 -21 -5
-28 -12z"/>
<path d="M3700 2555 c-15 -18 -6 -61 16 -69 18 -7 49 8 57 28 8 19 -20 56 -42
56 -10 0 -24 -7 -31 -15z"/>
<path d="M3816 2555 c-21 -22 -20 -38 5 -61 22 -20 43 -13 63 19 24 38 -35 74
-68 42z"/>
<path d="M846 2447 c-38 -27 2 -95 42 -71 24 16 28 55 6 71 -10 7 -21 13 -24
13 -3 0 -14 -6 -24 -13z"/>
<path d="M957 2442 c-33 -36 -9 -80 37 -68 33 8 43 42 20 67 -21 24 -36 24
-57 1z"/>
<path d="M1069 2439 c-18 -18 -19 -23 -6 -42 17 -26 43 -33 62 -17 19 16 19
45 -1 64 -20 21 -30 20 -55 -5z"/>
<path d="M1186 2444 c-29 -28 -13 -74 24 -74 24 0 52 34 44 54 -6 15 -34 36
-48 36 -2 0 -12 -7 -20 -16z"/>
<path d="M1300 2442 c-28 -23 -20 -59 16 -68 47 -12 72 37 36 69 -23 21 -25
21 -52 -1z"/>
<path d="M1418 2449 c-22 -12 -23 -52 -3 -69 19 -16 45 -9 62 17 13 19 12 24
-6 42 -24 24 -29 25 -53 10z"/>
<path d="M1525 2440 c-25 -28 -7 -70 30 -70 37 0 55 42 30 70 -10 11 -23 20
-30 20 -7 0 -20 -9 -30 -20z"/>
<path d="M1646 2447 c-38 -27 2 -95 42 -71 24 16 28 55 6 71 -10 7 -21 13 -24
13 -3 0 -14 -6 -24 -13z"/>
<path d="M1760 2442 c-28 -23 -20 -59 16 -68 47 -12 72 37 36 69 -23 21 -25
21 -52 -1z"/>
<path d="M1878 2449 c-22 -12 -23 -52 -3 -69 19 -16 45 -9 62 17 13 19 12 24
-6 42 -24 24 -29 25 -53 10z"/>
<path d="M1985 2440 c-25 -28 -7 -70 30 -70 37 0 55 42 30 70 -10 11 -23 20
-30 20 -7 0 -20 -9 -30 -20z"/>
<path d="M2106 2447 c-38 -27 2 -95 42 -71 24 16 28 55 6 71 -10 7 -21 13 -24
13 -3 0 -14 -6 -24 -13z"/>
<path d="M2217 2442 c-33 -36 -9 -80 37 -68 36 9 44 45 16 68 -28 22 -33 22
-53 0z"/>
<path d="M2342 2453 c-7 -2 -17 -14 -23 -25 -20 -37 39 -76 69 -46 17 17 15
44 -4 62 -16 17 -21 18 -42 9z"/>
<path d="M2446 2444 c-29 -28 -13 -74 24 -74 24 0 52 34 44 54 -6 15 -34 36
-48 36 -2 0 -12 -7 -20 -16z"/>
<path d="M2560 2442 c-28 -23 -20 -59 16 -68 47 -12 72 37 36 69 -23 21 -25
21 -52 -1z"/>
<path d="M2676 2447 c-22 -16 -18 -55 7 -71 39 -24 79 44 41 71 -10 7 -21 13
-24 13 -3 0 -14 -6 -24 -13z"/>
<path d="M2785 2440 c-25 -28 -7 -70 30 -70 37 0 55 42 30 70 -10 11 -23 20
-30 20 -7 0 -20 -9 -30 -20z"/>
<path d="M2906 2444 c-29 -28 -13 -74 24 -74 24 0 52 34 44 54 -6 15 -34 36
-48 36 -2 0 -12 -7 -20 -16z"/>
<path d="M3477 2442 c-33 -36 -9 -80 37 -68 36 9 44 45 16 68 -28 22 -33 22
-53 0z"/>
<path d="M3602 2453 c-7 -2 -17 -14 -23 -25 -20 -37 39 -76 69 -46 17 17 15
44 -4 62 -16 17 -21 18 -42 9z"/>
<path d="M3706 2444 c-20 -19 -20 -48 -1 -64 19 -16 45 -9 62 17 13 19 12 24
-6 42 -25 25 -35 26 -55 5z"/>
<path d="M840 2326 c-28 -35 11 -93 48 -70 35 22 22 84 -18 84 -10 0 -23 -7
-30 -14z"/>
<path d="M956 2324 c-9 -8 -16 -22 -16 -29 0 -17 27 -45 44 -45 15 0 46 32 46
47 0 13 -33 43 -48 43 -6 0 -18 -7 -26 -16z"/>
<path d="M1066 2318 c-16 -23 -7 -54 19 -64 22 -9 55 15 55 39 0 47 -48 63
-74 25z"/>
<path d="M1182 2328 c-18 -18 -14 -56 7 -68 29 -15 39 -13 57 15 16 24 16 27
-1 45 -20 23 -45 26 -63 8z"/>
<path d="M1297 2322 c-10 -10 -17 -23 -17 -29 0 -13 33 -43 48 -43 15 0 42 29
42 45 0 17 -27 45 -44 45 -7 0 -20 -8 -29 -18z"/>
<path d="M1412 2328 c-21 -21 -14 -57 14 -70 23 -11 29 -10 45 11 17 21 18 26
6 45 -17 25 -47 32 -65 14z"/>
<path d="M1526 2324 c-9 -8 -16 -21 -16 -28 0 -15 32 -46 47 -46 13 0 43 33
43 48 0 15 -29 42 -45 42 -7 0 -21 -7 -29 -16z"/>
<path d="M1642 2328 c-17 -17 -15 -53 3 -68 12 -10 21 -10 40 -2 40 19 29 82
-15 82 -9 0 -21 -5 -28 -12z"/>
<path d="M1757 2322 c-10 -10 -17 -23 -17 -29 0 -13 33 -43 48 -43 15 0 42 29
42 45 0 17 -27 45 -44 45 -7 0 -20 -8 -29 -18z"/>
<path d="M1872 2328 c-21 -21 -14 -57 14 -70 23 -11 29 -10 45 11 17 21 18 26
6 45 -17 25 -47 32 -65 14z"/>
<path d="M1986 2324 c-9 -8 -16 -21 -16 -28 0 -15 32 -46 48 -46 15 0 42 29
42 45 0 7 -7 21 -16 29 -8 9 -22 16 -29 16 -7 0 -21 -7 -29 -16z"/>
<path d="M2100 2326 c-28 -35 11 -93 48 -70 35 22 22 84 -18 84 -10 0 -23 -7
-30 -14z"/>
<path d="M2216 2324 c-9 -8 -16 -22 -16 -29 0 -17 27 -45 44 -45 15 0 46 32
46 47 0 13 -33 43 -48 43 -6 0 -18 -7 -26 -16z"/>
<path d="M2326 2318 c-16 -23 -7 -54 19 -64 22 -9 55 15 55 39 0 47 -48 63
-74 25z"/>
<path d="M2442 2328 c-21 -21 -14 -57 14 -70 23 -11 29 -10 45 11 17 21 18 26
6 45 -17 25 -47 32 -65 14z"/>
<path d="M2557 2322 c-10 -10 -17 -23 -17 -29 0 -13 33 -43 48 -43 15 0 42 29
42 45 0 17 -27 45 -44 45 -7 0 -20 -8 -29 -18z"/>
<path d="M2670 2326 c-28 -35 11 -93 48 -70 35 22 22 84 -18 84 -10 0 -23 -7
-30 -14z"/>
<path d="M2786 2324 c-9 -8 -16 -22 -16 -29 0 -17 27 -45 44 -45 15 0 46 32
46 48 0 15 -29 42 -45 42 -7 0 -21 -7 -29 -16z"/>
<path d="M3017 2322 c-10 -10 -17 -23 -17 -29 0 -13 33 -43 48 -43 15 0 42 29
42 45 0 17 -27 45 -44 45 -7 0 -20 -8 -29 -18z"/>
<path d="M3476 2324 c-9 -8 -16 -22 -16 -29 0 -17 27 -45 44 -45 15 0 46 32
46 47 0 13 -33 43 -48 43 -6 0 -18 -7 -26 -16z"/>
<path d="M3585 2320 c-17 -18 -17 -21 -1 -45 9 -14 21 -25 27 -25 24 0 49 22
49 43 0 46 -43 62 -75 27z"/>
<path d="M3702 2328 c-21 -21 -14 -57 14 -70 23 -11 29 -10 45 11 17 21 18 26
6 45 -17 25 -47 32 -65 14z"/>
<path d="M729 2211 c-21 -16 -22 -22 -11 -45 8 -17 19 -26 36 -26 47 0 61 50
20 77 -19 12 -24 11 -45 -6z"/>
<path d="M834 2206 c-9 -23 -1 -48 19 -60 25 -16 52 4 52 40 0 25 -4 29 -33
32 -22 2 -34 -2 -38 -12z"/>
<path d="M952 2208 c-27 -27 -6 -68 35 -68 31 0 52 42 33 65 -15 18 -51 20
-68 3z"/>
<path d="M1060 2201 c-14 -26 -3 -50 26 -57 42 -11 72 34 42 64 -18 18 -56 14
-68 -7z"/>
<path d="M1182 2208 c-27 -27 -6 -68 35 -68 29 0 48 33 33 60 -12 22 -49 27
-68 8z"/>
<path d="M1290 2201 c-16 -31 4 -63 37 -59 34 4 52 32 37 56 -16 26 -60 28
-74 3z"/>
<path d="M1404 2195 c-7 -29 10 -55 36 -55 24 0 42 24 38 52 -2 18 -10 24 -35
26 -28 3 -33 -1 -39 -23z"/>
<path d="M1522 2208 c-27 -27 -6 -68 35 -68 31 0 52 42 33 65 -15 18 -51 20
-68 3z"/>
<path d="M1637 2213 c-11 -11 -8 -48 5 -61 30 -30 75 0 64 43 -5 19 -13 25
-35 25 -15 0 -31 -3 -34 -7z"/>
<path d="M1750 2201 c-16 -31 4 -63 37 -59 34 4 52 32 37 56 -16 26 -60 28
-74 3z"/>
<path d="M1864 2195 c-12 -50 41 -75 70 -33 21 30 4 58 -34 58 -23 0 -31 -5
-36 -25z"/>
<path d="M1980 2205 c-21 -25 3 -67 37 -63 34 4 52 31 37 56 -15 23 -57 27
-74 7z"/>
<path d="M2097 2213 c-11 -11 -8 -48 5 -61 30 -30 75 0 64 43 -5 19 -13 25
-35 25 -15 0 -31 -3 -34 -7z"/>
<path d="M2212 2208 c-27 -27 -6 -68 35 -68 29 0 48 33 33 60 -12 22 -49 27
-68 8z"/>
<path d="M2320 2201 c-14 -26 -3 -50 26 -57 42 -11 72 34 42 64 -18 18 -56 14
-68 -7z"/>
<path d="M2442 2208 c-30 -30 0 -75 42 -64 29 7 40 31 26 57 -12 21 -50 25
-68 7z"/>
<path d="M2550 2201 c-16 -31 4 -63 37 -59 34 4 52 32 37 56 -16 26 -60 28
-74 3z"/>
<path d="M2664 2195 c-7 -29 10 -55 36 -55 24 0 42 24 38 52 -2 18 -10 24 -35
26 -28 3 -33 -1 -39 -23z"/>
<path d="M2782 2208 c-27 -27 -6 -68 35 -68 31 0 52 42 33 65 -15 18 -51 20
-68 3z"/>
<path d="M2902 2208 c-27 -27 -6 -68 35 -68 29 0 48 33 33 60 -12 22 -49 27
-68 8z"/>
<path d="M3010 2201 c-16 -31 4 -63 37 -59 34 4 52 32 37 56 -16 26 -60 28
-74 3z"/>
<path d="M3124 2195 c-7 -29 10 -55 36 -55 24 0 42 24 38 52 -2 18 -10 24 -35
26 -28 3 -33 -1 -39 -23z"/>
<path d="M3357 2213 c-11 -11 -8 -48 5 -61 30 -30 75 0 64 43 -5 19 -13 25
-35 25 -15 0 -31 -3 -34 -7z"/>
<path d="M3472 2208 c-27 -27 -6 -68 35 -68 29 0 48 33 33 60 -12 22 -49 27
-68 8z"/>
<path d="M3580 2201 c-14 -26 -3 -50 26 -57 42 -11 72 34 42 64 -18 18 -56 14
-68 -7z"/>
<path d="M3702 2208 c-30 -30 0 -75 42 -64 29 7 40 31 26 57 -12 21 -50 25
-68 7z"/>
<path d="M726 2094 c-21 -20 -20 -37 2 -57 24 -22 35 -21 57 3 38 42 -19 94
-59 54z"/>
<path d="M842 2098 c-34 -34 6 -90 48 -68 35 19 20 80 -20 80 -9 0 -21 -5 -28
-12z"/>
<path d="M952 2098 c-17 -17 -15 -42 6 -61 24 -22 35 -21 55 1 21 23 21 36 1
56 -18 19 -45 21 -62 4z"/>
<path d="M1066 2089 c-17 -24 -12 -45 14 -59 25 -14 49 -2 56 26 12 48 -41 73
-70 33z"/>
<path d="M1180 2095 c-15 -18 -6 -61 16 -69 39 -15 75 35 48 65 -21 23 -47 24
-64 4z"/>
<path d="M1296 2095 c-21 -22 -20 -38 5 -61 22 -20 43 -13 63 19 24 38 -35 74
-68 42z"/>
<path d="M1412 2098 c-33 -33 6 -91 47 -69 27 15 32 35 15 60 -17 23 -44 27
-62 9z"/>
<path d="M1518 2085 c-9 -21 -8 -28 7 -45 10 -11 23 -20 30 -20 7 0 20 9 30
20 25 28 7 70 -30 70 -17 0 -29 -8 -37 -25z"/>
<path d="M1642 2098 c-34 -34 6 -90 48 -68 35 19 20 80 -20 80 -9 0 -21 -5
-28 -12z"/>
<path d="M1756 2095 c-21 -22 -20 -38 5 -61 22 -20 43 -13 63 19 24 38 -35 74
-68 42z"/>
<path d="M1872 2098 c-33 -33 6 -91 47 -69 27 15 32 35 15 60 -17 23 -44 27
-62 9z"/>
<path d="M1978 2085 c-9 -21 -8 -28 7 -45 10 -11 23 -20 30 -20 7 0 20 9 30
20 25 28 7 70 -30 70 -17 0 -29 -8 -37 -25z"/>
<path d="M2102 2098 c-34 -34 6 -90 48 -68 35 19 20 80 -20 80 -9 0 -21 -5
-28 -12z"/>
<path d="M2212 2098 c-17 -17 -15 -42 6 -61 24 -22 35 -21 55 1 21 23 21 36 1
56 -18 19 -45 21 -62 4z"/>
<path d="M2326 2091 c-19 -21 -13 -47 14 -61 25 -14 49 -2 56 26 12 47 -37 72
-70 35z"/>
<path d="M2440 2095 c-15 -18 -6 -61 16 -69 39 -15 75 35 48 65 -21 23 -47 24
-64 4z"/>
<path d="M2556 2095 c-21 -22 -20 -38 5 -61 22 -20 43 -13 63 19 24 38 -35 74
-68 42z"/>
<path d="M2672 2098 c-34 -34 6 -90 48 -68 35 19 20 80 -20 80 -9 0 -21 -5
-28 -12z"/>
<path d="M2778 2085 c-9 -21 -8 -28 7 -45 10 -11 23 -20 30 -20 7 0 20 9 30
20 25 28 7 70 -30 70 -17 0 -29 -8 -37 -25z"/>
<path d="M2900 2095 c-15 -18 -6 -61 16 -69 39 -15 75 35 48 65 -21 23 -47 24
-64 4z"/>
<path d="M3016 2095 c-21 -22 -20 -38 5 -61 22 -20 43 -13 63 19 24 38 -35 74
-68 42z"/>
<path d="M3132 2098 c-34 -34 6 -90 48 -68 35 19 20 80 -20 80 -9 0 -21 -5
-28 -12z"/>
<path d="M3238 2085 c-9 -21 -8 -28 7 -45 10 -11 23 -20 30 -20 7 0 20 9 30
20 25 28 7 70 -30 70 -17 0 -29 -8 -37 -25z"/>
<path d="M3356 2089 c-17 -25 -12 -45 15 -60 26 -14 59 5 59 34 0 47 -48 63
-74 26z"/>
<path d="M3472 2098 c-17 -17 -15 -42 6 -61 24 -22 35 -21 55 1 21 23 21 36 1
56 -18 19 -45 21 -62 4z"/>
<path d="M3586 2091 c-19 -21 -13 -47 14 -61 25 -14 49 -2 56 26 12 47 -37 72
-70 35z"/>
<path d="M727 1982 c-21 -23 -21 -36 -1 -56 23 -24 53 -20 66 9 9 21 8 28 -7
45 -22 25 -37 25 -58 2z"/>
<path d="M846 1987 c-38 -27 2 -95 42 -71 24 16 28 55 6 71 -10 7 -21 13 -24
13 -3 0 -14 -6 -24 -13z"/>
<path d="M957 1982 c-33 -36 -9 -80 37 -68 36 9 44 45 16 68 -28 22 -33 22
-53 0z"/>
<path d="M1069 1979 c-18 -18 -19 -23 -6 -42 17 -26 43 -33 62 -17 19 16 19
45 -1 64 -20 21 -30 20 -55 -5z"/>
<path d="M1186 1984 c-29 -28 -13 -74 24 -74 24 0 52 34 44 54 -6 15 -34 36
-48 36 -2 0 -12 -7 -20 -16z"/>
<path d="M1300 1982 c-28 -23 -20 -59 16 -68 47 -12 72 37 36 69 -23 21 -25
21 -52 -1z"/>
<path d="M1418 1989 c-22 -12 -23 -52 -3 -69 19 -16 45 -9 62 17 13 19 12 24
-6 42 -24 24 -29 25 -53 10z"/>
<path d="M1525 1980 c-25 -28 -7 -70 30 -70 37 0 55 42 30 70 -10 11 -23 20
-30 20 -7 0 -20 -9 -30 -20z"/>
<path d="M1646 1987 c-38 -27 2 -95 42 -71 24 16 28 55 6 71 -10 7 -21 13 -24
13 -3 0 -14 -6 -24 -13z"/>
<path d="M1760 1982 c-28 -23 -20 -59 16 -68 47 -12 72 37 36 69 -23 21 -25
21 -52 -1z"/>
<path d="M1878 1989 c-22 -12 -23 -52 -3 -69 19 -16 45 -9 62 17 13 19 12 24
-6 42 -24 24 -29 25 -53 10z"/>
<path d="M1985 1980 c-25 -28 -7 -70 30 -70 37 0 55 42 30 70 -10 11 -23 20
-30 20 -7 0 -20 -9 -30 -20z"/>
<path d="M2106 1987 c-38 -27 2 -95 42 -71 24 16 28 55 6 71 -10 7 -21 13 -24
13 -3 0 -14 -6 -24 -13z"/>
<path d="M2217 1982 c-33 -36 -9 -80 37 -68 36 9 44 45 16 68 -28 22 -33 22
-53 0z"/>
<path d="M2342 1993 c-7 -2 -17 -14 -23 -25 -20 -37 39 -76 69 -46 17 17 15
44 -4 62 -16 17 -21 18 -42 9z"/>
<path d="M2446 1984 c-29 -28 -13 -74 24 -74 24 0 52 34 44 54 -6 15 -34 36
-48 36 -2 0 -12 -7 -20 -16z"/>
<path d="M2560 1982 c-28 -23 -20 -59 16 -68 47 -12 72 37 36 69 -23 21 -25
21 -52 -1z"/>
<path d="M2676 1987 c-22 -16 -18 -55 7 -71 39 -24 79 44 41 71 -10 7 -21 13
-24 13 -3 0 -14 -6 -24 -13z"/>
<path d="M2785 1980 c-25 -28 -7 -70 30 -70 37 0 55 42 30 70 -10 11 -23 20
-30 20 -7 0 -20 -9 -30 -20z"/>
<path d="M2906 1984 c-29 -28 -13 -74 24 -74 24 0 52 34 44 54 -6 15 -34 36
-48 36 -2 0 -12 -7 -20 -16z"/>
<path d="M3020 1982 c-28 -23 -20 -59 16 -68 47 -12 72 37 36 69 -23 21 -25
21 -52 -1z"/>
<path d="M3136 1987 c-22 -16 -18 -55 7 -71 39 -24 79 44 41 71 -10 7 -21 13
-24 13 -3 0 -14 -6 -24 -13z"/>
<path d="M3245 1980 c-25 -28 -7 -70 30 -70 37 0 55 42 30 70 -10 11 -23 20
-30 20 -7 0 -20 -9 -30 -20z"/>
<path d="M3359 1979 c-18 -18 -19 -23 -6 -42 8 -12 22 -23 31 -25 42 -9 64 58
27 78 -26 13 -28 13 -52 -11z"/>
<path d="M3477 1982 c-33 -36 -9 -80 37 -68 36 9 44 45 16 68 -28 22 -33 22
-53 0z"/>
<path d="M3602 1993 c-7 -2 -17 -14 -23 -25 -20 -37 39 -76 69 -46 17 17 15
44 -4 62 -16 17 -21 18 -42 9z"/>
<path d="M842 1868 c-34 -34 6 -90 48 -68 35 19 20 80 -20 80 -9 0 -21 -5 -28
-12z"/>
<path d="M950 1865 c-16 -19 -9 -45 16 -62 19 -12 24 -11 45 6 21 16 22 22 11
45 -13 29 -52 36 -72 11z"/>
<path d="M1066 1864 c-21 -20 -20 -30 5 -55 18 -18 23 -19 42 -6 26 17 33 43
17 62 -16 19 -45 19 -64 -1z"/>
<path d="M1180 1865 c-16 -19 -9 -45 17 -62 19 -13 24 -12 42 6 25 25 26 35 5
55 -19 20 -48 20 -64 1z"/>
<path d="M1290 1861 c-21 -41 21 -81 58 -55 38 26 22 74 -25 74 -12 0 -27 -9
-33 -19z"/>
<path d="M1410 1865 c-15 -18 -6 -61 16 -69 18 -7 49 8 57 28 8 19 -20 56 -42
56 -10 0 -24 -7 -31 -15z"/>
<path d="M1520 1859 c-14 -25 -8 -44 19 -58 15 -8 24 -7 42 8 21 16 22 22 11
45 -15 33 -56 36 -72 5z"/>
<path d="M1642 1868 c-34 -34 6 -90 48 -68 35 19 20 80 -20 80 -9 0 -21 -5
-28 -12z"/>
<path d="M1750 1861 c-21 -41 21 -81 58 -55 38 26 22 74 -25 74 -12 0 -27 -9
-33 -19z"/>
<path d="M1870 1865 c-15 -18 -6 -61 16 -69 18 -7 49 8 57 28 8 19 -20 56 -42
56 -10 0 -24 -7 -31 -15z"/>
<path d="M1980 1859 c-14 -25 -8 -44 19 -58 15 -8 24 -7 42 8 21 16 22 22 11
45 -15 33 -56 36 -72 5z"/>
<path d="M2102 1868 c-34 -34 6 -90 48 -68 35 19 20 80 -20 80 -9 0 -21 -5
-28 -12z"/>
<path d="M2212 1868 c-18 -18 -14 -45 10 -62 37 -26 79 14 58 55 -12 21 -50
25 -68 7z"/>
<path d="M2326 1864 c-21 -20 -20 -30 5 -55 18 -18 23 -19 42 -6 26 17 33 43
17 62 -16 19 -45 19 -64 -1z"/>
<path d="M2440 1865 c-16 -19 -9 -45 17 -62 19 -13 24 -12 42 6 25 25 26 35 5
55 -19 20 -48 20 -64 1z"/>
<path d="M2550 1861 c-21 -41 21 -81 58 -55 38 26 22 74 -25 74 -12 0 -27 -9
-33 -19z"/>
<path d="M2672 1868 c-34 -34 6 -90 48 -68 35 19 20 80 -20 80 -9 0 -21 -5
-28 -12z"/>
<path d="M2780 1859 c-14 -25 -8 -44 19 -58 15 -8 24 -7 42 8 21 16 22 22 11
45 -15 33 -56 36 -72 5z"/>
<path d="M2900 1865 c-16 -19 -9 -45 17 -62 19 -13 24 -12 42 6 25 25 26 35 5
55 -19 20 -48 20 -64 1z"/>
<path d="M3010 1861 c-21 -41 21 -81 58 -55 38 26 22 74 -25 74 -12 0 -27 -9
-33 -19z"/>
<path d="M3132 1868 c-34 -34 6 -90 48 -68 35 19 20 80 -20 80 -9 0 -21 -5
-28 -12z"/>
<path d="M3240 1859 c-14 -25 -8 -44 19 -58 15 -8 24 -7 42 8 21 16 22 22 11
45 -15 33 -56 36 -72 5z"/>
<path d="M3356 1859 c-17 -24 -12 -45 14 -59 25 -14 49 -2 56 26 12 48 -41 73
-70 33z"/>
<path d="M3472 1868 c-18 -18 -14 -45 10 -62 37 -26 79 14 58 55 -12 21 -50
25 -68 7z"/>
<path d="M3586 1864 c-21 -20 -20 -30 5 -55 18 -18 23 -19 42 -6 26 17 33 43
17 62 -16 19 -45 19 -64 -1z"/>
<path d="M840 1756 c-16 -20 -9 -56 13 -70 39 -24 79 44 41 71 -23 17 -39 16
-54 -1z"/>
<path d="M956 1754 c-9 -8 -16 -22 -16 -29 0 -17 27 -45 44 -45 15 0 46 32 46
47 0 13 -33 43 -48 43 -6 0 -18 -7 -26 -16z"/>
<path d="M1066 1748 c-13 -19 -14 -25 -2 -43 7 -11 21 -21 30 -23 42 -9 64 58
27 78 -28 15 -38 13 -55 -12z"/>
<path d="M1186 1754 c-19 -18 -21 -45 -4 -62 18 -18 43 -15 63 8 17 18 17 21
1 45 -19 29 -38 32 -60 9z"/>
<path d="M1297 1752 c-10 -10 -17 -23 -17 -29 0 -13 33 -43 48 -43 15 0 42 29
42 45 0 17 -27 45 -44 45 -7 0 -20 -8 -29 -18z"/>
<path d="M1418 1759 c-21 -12 -24 -49 -6 -67 19 -19 45 -14 62 10 13 19 14 25
2 43 -16 24 -35 28 -58 14z"/>
<path d="M1526 1751 c-21 -23 -14 -57 13 -66 45 -14 76 32 45 66 -9 10 -22 19
-29 19 -7 0 -20 -9 -29 -19z"/>
<path d="M1640 1756 c-16 -20 -9 -56 13 -70 39 -24 79 44 41 71 -23 17 -39 16
-54 -1z"/>
<path d="M1757 1752 c-22 -24 -21 -35 3 -57 42 -38 94 19 54 59 -20 21 -37 20
-57 -2z"/>
<path d="M1878 1759 c-21 -12 -24 -49 -6 -67 19 -19 45 -14 62 10 13 19 14 25
2 43 -16 24 -35 28 -58 14z"/>
<path d="M1986 1751 c-21 -23 -14 -57 13 -66 45 -14 76 32 45 66 -9 10 -22 19
-29 19 -7 0 -20 -9 -29 -19z"/>
<path d="M2100 1756 c-16 -20 -9 -56 13 -70 39 -24 79 44 41 71 -23 17 -39 16
-54 -1z"/>
<path d="M2216 1754 c-9 -8 -16 -22 -16 -29 0 -17 27 -45 44 -45 15 0 46 32
46 47 0 13 -33 43 -48 43 -6 0 -18 -7 -26 -16z"/>
<path d="M2326 1748 c-13 -19 -14 -25 -2 -43 7 -11 21 -21 30 -23 42 -9 64 58
27 78 -28 15 -38 13 -55 -12z"/>
<path d="M2448 1759 c-21 -12 -24 -49 -6 -67 19 -19 45 -14 62 10 13 19 14 25
2 43 -16 24 -35 28 -58 14z"/>
<path d="M2557 1752 c-10 -10 -17 -23 -17 -29 0 -13 33 -43 48 -43 15 0 42 29
42 45 0 17 -27 45 -44 45 -7 0 -20 -8 -29 -18z"/>
<path d="M2676 1757 c-38 -27 2 -95 42 -71 21 14 28 50 12 70 -15 17 -31 18
-54 1z"/>
<path d="M2786 1751 c-21 -23 -14 -57 13 -66 45 -14 76 32 45 66 -9 10 -22 19
-29 19 -7 0 -20 -9 -29 -19z"/>
<path d="M2908 1759 c-21 -12 -24 -49 -6 -67 19 -19 45 -14 62 10 13 19 14 25
2 43 -16 24 -35 28 -58 14z"/>
<path d="M3017 1752 c-22 -24 -21 -35 3 -57 42 -38 94 19 54 59 -20 21 -37 20
-57 -2z"/>
<path d="M3136 1757 c-38 -27 2 -95 42 -71 21 14 28 50 12 70 -15 17 -31 18
-54 1z"/>
<path d="M3246 1751 c-21 -23 -14 -57 13 -66 45 -14 76 32 45 66 -9 10 -22 19
-29 19 -7 0 -20 -9 -29 -19z"/>
<path d="M3356 1748 c-13 -19 -14 -25 -2 -43 7 -11 21 -21 30 -23 42 -9 64 58
27 78 -28 15 -38 13 -55 -12z"/>
<path d="M3476 1754 c-9 -8 -16 -22 -16 -29 0 -17 27 -45 44 -45 15 0 46 32
46 47 0 13 -33 43 -48 43 -6 0 -18 -7 -26 -16z"/>
<path d="M3584 1745 c-16 -24 -16 -27 1 -45 20 -23 45 -26 63 -8 17 17 15 44
-4 62 -22 23 -41 20 -60 -9z"/>
<path d="M952 1638 c-27 -27 -6 -68 35 -68 29 0 48 33 33 60 -12 22 -49 27
-68 8z"/>
<path d="M1060 1631 c-16 -31 4 -63 37 -59 55 7 55 69 0 76 -18 2 -29 -3 -37
-17z"/>
<path d="M1182 1638 c-27 -27 -6 -68 35 -68 29 0 48 33 33 60 -12 22 -49 27
-68 8z"/>
<path d="M1290 1631 c-16 -31 4 -63 37 -59 34 4 52 32 37 56 -16 26 -60 28
-74 3z"/>
<path d="M1412 1638 c-29 -29 -3 -72 40 -66 19 2 23 9 23 38 0 30 -4 35 -25
38 -14 2 -31 -3 -38 -10z"/>
<path d="M1522 1638 c-28 -28 -3 -72 39 -66 30 4 47 33 33 56 -14 21 -55 27
-72 10z"/>
<path d="M1634 1636 c-3 -8 -4 -25 -2 -38 2 -18 9 -23 32 -23 36 0 56 27 40
53 -14 22 -62 28 -70 8z"/>
<path d="M1750 1631 c-16 -31 4 -63 37 -59 34 4 52 32 37 56 -16 26 -60 28
-74 3z"/>
<path d="M1872 1638 c-29 -29 -3 -72 40 -66 19 2 23 9 23 38 0 30 -4 35 -25
38 -14 2 -31 -3 -38 -10z"/>
<path d="M1982 1638 c-28 -28 -3 -72 39 -66 30 4 47 33 33 56 -14 21 -55 27
-72 10z"/>
<path d="M2095 1631 c-11 -36 4 -63 32 -59 55 7 55 69 0 76 -18 2 -27 -2 -32
-17z"/>
<path d="M2212 1638 c-27 -27 -6 -68 35 -68 29 0 48 33 33 60 -12 22 -49 27
-68 8z"/>
<path d="M2320 1631 c-16 -31 4 -63 37 -59 34 4 52 32 37 56 -16 26 -60 28
-74 3z"/>
<path d="M2442 1638 c-27 -27 -6 -68 35 -68 29 0 48 33 33 60 -12 22 -49 27
-68 8z"/>
<path d="M2550 1631 c-16 -31 4 -63 37 -59 34 4 52 32 37 56 -16 26 -60 28
-74 3z"/>
<path d="M2672 1638 c-27 -27 -6 -68 34 -68 25 0 39 28 29 60 -7 22 -44 27
-63 8z"/>
<path d="M2782 1638 c-28 -28 -3 -72 39 -66 30 4 47 33 33 56 -14 21 -55 27
-72 10z"/>
<path d="M2902 1638 c-27 -27 -6 -68 35 -68 29 0 48 33 33 60 -12 22 -49 27
-68 8z"/>
<path d="M3010 1631 c-16 -31 4 -63 37 -59 34 4 52 32 37 56 -16 26 -60 28
-74 3z"/>
<path d="M3132 1638 c-29 -29 -3 -72 40 -66 19 2 23 9 23 38 0 30 -4 35 -25
38 -14 2 -31 -3 -38 -10z"/>
<path d="M3242 1638 c-28 -28 -3 -72 39 -66 30 4 47 33 33 56 -14 21 -55 27
-72 10z"/>
<path d="M3354 1636 c-3 -8 -4 -25 -2 -38 2 -18 9 -23 32 -23 36 0 56 27 40
53 -14 22 -62 28 -70 8z"/>
<path d="M3472 1638 c-27 -27 -6 -68 35 -68 29 0 48 33 33 60 -12 22 -49 27
-68 8z"/>
<path d="M3580 1631 c-16 -31 4 -63 37 -59 34 4 52 32 37 56 -16 26 -60 28
-74 3z"/>
<path d="M956 1524 c-9 -8 -16 -22 -16 -29 0 -17 27 -45 44 -45 15 0 46 32 46
47 0 13 -33 43 -48 43 -6 0 -18 -7 -26 -16z"/>
<path d="M1066 1518 c-16 -23 -7 -54 19 -64 22 -9 55 15 55 39 0 47 -48 63
-74 25z"/>
<path d="M1182 1528 c-17 -17 -15 -44 4 -62 22 -23 41 -20 60 9 16 24 16 27
-1 45 -20 23 -45 26 -63 8z"/>
<path d="M1297 1522 c-10 -10 -17 -23 -17 -29 0 -13 33 -43 48 -43 15 0 42 29
42 45 0 17 -27 45 -44 45 -7 0 -20 -8 -29 -18z"/>
<path d="M1412 1528 c-21 -21 -14 -57 14 -70 23 -11 29 -10 45 11 17 21 18 26
6 45 -17 25 -47 32 -65 14z"/>
<path d="M1526 1524 c-9 -8 -16 -21 -16 -28 0 -15 32 -46 47 -46 13 0 43 33
43 48 0 15 -29 42 -45 42 -7 0 -21 -7 -29 -16z"/>
<path d="M1642 1528 c-17 -17 -15 -53 3 -68 12 -10 21 -10 40 -2 40 19 29 82
-15 82 -9 0 -21 -5 -28 -12z"/>
<path d="M1757 1522 c-22 -24 -21 -35 2 -56 26 -23 59 -13 67 21 5 19 2 30
-11 40 -25 18 -39 16 -58 -5z"/>
<path d="M1872 1528 c-21 -21 -14 -57 14 -70 23 -11 29 -10 45 11 17 21 18 26
6 45 -17 25 -47 32 -65 14z"/>
<path d="M1986 1524 c-9 -8 -16 -21 -16 -28 0 -15 32 -46 47 -46 13 0 43 33
43 48 0 15 -29 42 -45 42 -7 0 -21 -7 -29 -16z"/>
<path d="M2102 1528 c-17 -17 -15 -53 3 -68 12 -10 21 -10 40 -2 40 19 29 82
-15 82 -9 0 -21 -5 -28 -12z"/>
<path d="M2216 1524 c-9 -8 -16 -22 -16 -29 0 -17 27 -45 44 -45 15 0 46 32
46 47 0 13 -33 43 -48 43 -6 0 -18 -7 -26 -16z"/>
<path d="M2326 1518 c-16 -23 -7 -54 19 -64 22 -9 55 15 55 39 0 47 -48 63
-74 25z"/>
<path d="M2442 1528 c-21 -21 -14 -57 14 -70 23 -11 29 -10 45 11 17 21 18 26
6 45 -17 25 -47 32 -65 14z"/>
<path d="M2557 1522 c-10 -10 -17 -23 -17 -29 0 -13 33 -43 48 -43 15 0 42 29
42 45 0 17 -27 45 -44 45 -7 0 -20 -8 -29 -18z"/>
<path d="M2672 1528 c-35 -35 15 -99 53 -68 30 25 12 80 -25 80 -9 0 -21 -5
-28 -12z"/>
<path d="M2786 1524 c-9 -8 -16 -21 -16 -28 0 -15 32 -46 47 -46 13 0 43 33
43 48 0 15 -29 42 -45 42 -7 0 -21 -7 -29 -16z"/>
<path d="M2902 1528 c-21 -21 -14 -57 14 -70 23 -11 29 -10 45 11 17 21 18 26
6 45 -17 25 -47 32 -65 14z"/>
<path d="M3017 1522 c-22 -24 -21 -35 2 -56 26 -23 59 -13 67 21 5 19 2 30
-11 40 -25 18 -39 16 -58 -5z"/>
<path d="M3132 1528 c-35 -35 15 -99 53 -68 30 25 12 80 -25 80 -9 0 -21 -5
-28 -12z"/>
<path d="M3246 1524 c-9 -8 -16 -21 -16 -28 0 -15 32 -46 47 -46 13 0 43 33
43 48 0 15 -29 42 -45 42 -7 0 -21 -7 -29 -16z"/>
<path d="M3356 1518 c-16 -23 -7 -54 19 -64 22 -9 55 15 55 39 0 47 -48 63
-74 25z"/>
<path d="M3476 1524 c-9 -8 -16 -22 -16 -29 0 -17 27 -45 44 -45 15 0 46 32
46 47 0 13 -33 43 -48 43 -6 0 -18 -7 -26 -16z"/>
<path d="M1071 1411 c-25 -25 -26 -35 -5 -55 19 -20 48 -20 64 -1 16 19 9 45
-17 62 -19 13 -24 12 -42 -6z"/>
<path d="M1191 1414 c-40 -29 -15 -82 33 -70 28 7 40 31 26 56 -14 26 -35 31
-59 14z"/>
<path d="M1312 1423 c-22 -8 -34 -41 -22 -63 20 -38 87 -16 78 26 -4 20 -38
43 -56 37z"/>
<path d="M1416 1414 c-20 -19 -20 -48 -1 -64 19 -16 45 -9 62 17 13 19 12 24
-6 42 -25 25 -35 26 -55 5z"/>
<path d="M1529 1411 c-21 -16 -22 -22 -11 -45 15 -33 56 -36 72 -5 14 25 8 44
-19 58 -15 8 -24 7 -42 -8z"/>
<path d="M1646 1417 c-38 -27 2 -95 42 -71 24 16 28 55 6 71 -10 7 -21 13 -24
13 -3 0 -14 -6 -24 -13z"/>
<path d="M1772 1423 c-22 -8 -34 -41 -22 -63 20 -38 87 -16 78 26 -4 20 -38
43 -56 37z"/>
<path d="M1876 1414 c-20 -19 -20 -48 -1 -64 19 -16 45 -9 62 17 13 19 12 24
-6 42 -25 25 -35 26 -55 5z"/>
<path d="M1989 1411 c-21 -16 -22 -22 -11 -45 15 -33 56 -36 72 -5 14 25 8 44
-19 58 -15 8 -24 7 -42 -8z"/>
<path d="M2106 1417 c-38 -27 2 -95 42 -71 24 16 28 55 6 71 -10 7 -21 13 -24
13 -3 0 -14 -6 -24 -13z"/>
<path d="M2221 1414 c-37 -26 -21 -74 26 -74 29 0 48 33 34 59 -15 27 -35 32
-60 15z"/>
<path d="M2331 1411 c-25 -25 -26 -35 -5 -55 19 -20 48 -20 64 -1 16 19 9 45
-17 62 -19 13 -24 12 -42 -6z"/>
<path d="M2451 1414 c-40 -29 -15 -82 33 -70 28 7 40 31 26 56 -14 26 -35 31
-59 14z"/>
<path d="M2572 1423 c-22 -8 -34 -41 -22 -63 20 -38 87 -16 78 26 -4 20 -38
43 -56 37z"/>
<path d="M2676 1417 c-22 -16 -18 -55 7 -71 39 -24 79 44 41 71 -10 7 -21 13
-24 13 -3 0 -14 -6 -24 -13z"/>
<path d="M2789 1411 c-21 -16 -22 -22 -11 -45 15 -33 56 -36 72 -5 14 25 8 44
-19 58 -15 8 -24 7 -42 -8z"/>
<path d="M2911 1414 c-40 -29 -15 -82 33 -70 28 7 40 31 26 56 -14 26 -35 31
-59 14z"/>
<path d="M3032 1423 c-22 -8 -34 -41 -22 -63 20 -38 87 -16 78 26 -4 20 -38
43 -56 37z"/>
<path d="M3136 1417 c-22 -16 -18 -55 7 -71 39 -24 79 44 41 71 -10 7 -21 13
-24 13 -3 0 -14 -6 -24 -13z"/>
<path d="M3249 1411 c-21 -16 -22 -22 -11 -45 15 -33 56 -36 72 -5 14 25 8 44
-19 58 -15 8 -24 7 -42 -8z"/>
<path d="M3366 1417 c-38 -27 2 -95 42 -71 23 15 27 48 7 68 -20 19 -26 20
-49 3z"/>
<path d="M1412 1298 c-33 -33 6 -91 47 -69 27 15 32 35 15 60 -17 23 -44 27
-62 9z"/>
<path d="M1518 1285 c-9 -21 -8 -28 7 -45 10 -11 23 -20 30 -20 7 0 20 9 30
20 25 28 7 70 -30 70 -17 0 -29 -8 -37 -25z"/>
<path d="M1642 1298 c-34 -34 6 -90 48 -68 35 19 20 80 -20 80 -9 0 -21 -5
-28 -12z"/>
<path d="M1756 1294 c-23 -22 -20 -41 9 -60 24 -16 27 -16 45 1 23 20 26 45 8
63 -17 17 -44 15 -62 -4z"/>
<path d="M1872 1298 c-33 -33 6 -91 47 -69 27 15 32 35 15 60 -17 23 -44 27
-62 9z"/>
<path d="M1978 1285 c-9 -21 -8 -28 7 -45 10 -11 23 -20 30 -20 7 0 20 9 30
20 25 28 7 70 -30 70 -17 0 -29 -8 -37 -25z"/>
<path d="M2102 1298 c-34 -34 6 -90 48 -68 35 19 20 80 -20 80 -9 0 -21 -5
-28 -12z"/>
<path d="M2212 1298 c-18 -18 -15 -43 8 -63 18 -17 21 -17 45 -1 29 19 32 38
9 60 -18 19 -45 21 -62 4z"/>
<path d="M2326 1291 c-19 -21 -13 -47 14 -61 25 -14 49 -2 56 26 12 47 -37 72
-70 35z"/>
<path d="M2440 1295 c-15 -18 -6 -61 16 -69 39 -15 75 35 48 65 -21 23 -47 24
-64 4z"/>
<path d="M2556 1294 c-23 -22 -20 -41 9 -60 24 -16 27 -16 45 1 23 20 26 45 8
63 -17 17 -44 15 -62 -4z"/>
<path d="M2672 1298 c-34 -34 6 -90 48 -68 35 19 20 80 -20 80 -9 0 -21 -5
-28 -12z"/>
<path d="M2778 1285 c-9 -21 -8 -28 7 -45 10 -11 23 -20 30 -20 7 0 20 9 30
20 25 28 7 70 -30 70 -17 0 -29 -8 -37 -25z"/>
<path d="M2900 1295 c-15 -18 -6 -61 16 -69 39 -15 75 35 48 65 -21 23 -47 24
-64 4z"/>
<path d="M3016 1294 c-23 -22 -20 -41 9 -60 24 -16 27 -16 45 1 23 20 26 45 8
63 -17 17 -44 15 -62 -4z"/>
<path d="M3132 1298 c-34 -34 6 -90 48 -68 35 19 20 80 -20 80 -9 0 -21 -5
-28 -12z"/>
<path d="M3238 1285 c-9 -21 -8 -28 7 -45 10 -11 23 -20 30 -20 7 0 20 9 30
20 25 28 7 70 -30 70 -17 0 -29 -8 -37 -25z"/>
<path d="M3356 1289 c-17 -25 -12 -45 15 -60 26 -14 59 5 59 34 0 47 -48 63
-74 26z"/>
<path d="M1878 1189 c-22 -12 -23 -52 -3 -69 19 -16 45 -9 62 17 13 19 12 24
-6 42 -24 24 -29 25 -53 10z"/>
<path d="M1985 1180 c-25 -28 -7 -70 30 -70 37 0 55 42 30 70 -10 11 -23 20
-30 20 -7 0 -20 -9 -30 -20z"/>
<path d="M2106 1187 c-22 -16 -18 -55 7 -71 39 -24 79 44 41 71 -10 7 -21 13
-24 13 -3 0 -14 -6 -24 -13z"/>
<path d="M2217 1182 c-33 -36 -9 -80 37 -68 33 8 43 42 20 67 -21 24 -36 24
-57 1z"/>
<path d="M2342 1193 c-7 -2 -17 -14 -23 -25 -20 -37 39 -76 69 -46 17 17 15
44 -4 62 -16 17 -21 18 -42 9z" fill="red" stroke="none"/>
<path d="M2446 1184 c-29 -28 -13 -74 24 -74 24 0 52 34 44 54 -6 15 -34 36
-48 36 -2 0 -12 -7 -20 -16z"/>
<path d="M2556 1181 c-23 -25 -13 -59 20 -67 47 -12 72 37 36 69 -24 22 -35
21 -56 -2z"/>
<path d="M2676 1187 c-22 -16 -18 -55 7 -71 39 -24 79 44 41 71 -10 7 -21 13
-24 13 -3 0 -14 -6 -24 -13z"/>
<path d="M2785 1180 c-25 -28 -7 -70 30 -70 37 0 55 42 30 70 -10 11 -23 20
-30 20 -7 0 -20 -9 -30 -20z"/>
<path d="M2906 1184 c-29 -28 -13 -74 24 -74 24 0 52 34 44 54 -6 15 -34 36
-48 36 -2 0 -12 -7 -20 -16z"/>
<path d="M3136 1187 c-22 -16 -18 -55 7 -71 39 -24 79 44 41 71 -10 7 -21 13
-24 13 -3 0 -14 -6 -24 -13z"/>
<path d="M3245 1180 c-25 -28 -7 -70 30 -70 37 0 55 42 30 70 -10 11 -23 20
-30 20 -7 0 -20 -9 -30 -20z"/>
<path d="M3359 1179 c-18 -18 -19 -23 -6 -42 8 -12 22 -23 31 -25 42 -9 64 58
27 78 -26 13 -28 13 -52 -11z"/>
<path d="M2102 1068 c-17 -17 -15 -53 3 -68 12 -10 21 -10 40 -2 40 19 29 82
-15 82 -9 0 -21 -5 -28 -12z"/>
<path d="M2216 1064 c-9 -8 -16 -22 -16 -29 0 -17 27 -45 44 -45 15 0 46 32
46 47 0 13 -33 43 -48 43 -6 0 -18 -7 -26 -16z"/>
<path d="M2326 1058 c-16 -23 -7 -54 19 -64 22 -9 55 15 55 39 0 47 -48 63
-74 25z"/>
<path d="M2442 1068 c-21 -21 -14 -57 14 -70 23 -11 29 -10 45 11 17 21 18 26
6 45 -17 25 -47 32 -65 14z"/>
<path d="M2786 1064 c-9 -8 -16 -21 -16 -28 0 -15 32 -46 47 -46 13 0 43 33
43 48 0 15 -29 42 -45 42 -7 0 -21 -7 -29 -16z"/>
<path d="M3356 1058 c-16 -23 -7 -54 19 -64 22 -9 55 15 55 39 0 47 -48 63
-74 25z"/>
<path d="M3476 1064 c-9 -8 -16 -22 -16 -29 0 -17 27 -45 44 -45 15 0 46 32
46 47 0 13 -33 43 -48 43 -6 0 -18 -7 -26 -16z"/>
<path d="M2221 954 c-37 -26 -21 -74 26 -74 29 0 48 33 34 59 -15 27 -35 32
-60 15z"/>
<path d="M2331 951 c-25 -25 -26 -35 -5 -55 19 -20 48 -20 64 -1 16 19 9 45
-17 62 -19 13 -24 12 -42 -6z"/>
<path d="M3481 954 c-37 -26 -21 -74 26 -74 29 0 48 33 34 59 -15 27 -35 32
-60 15z"/>
<path d="M2326 831 c-19 -21 -13 -47 14 -61 25 -14 49 -2 56 26 12 47 -37 72
-70 35z"/>



<circle cx="2342" cy="1150" r="70" fill="red" stroke="none"/>


</g>
</g> 
    
<g> 
  <image x="425" y="-30" width="120" height="120" xlink:href="oblogoLargeFaceNoTitle.svg" />
    
  <text x="303" y="70" class="atob" text-anchor="start">@oftenback.io</text> 

  <text x="303" y="25" class="aboutSvgName" text-anchor="start">NICHOLAS</text>
  <text x="303" y="50" class="aboutSvgName" text-anchor="start">BACUEZ</text>
</g> 
    

   <!-- polaroids -->
   
    
    
    <a href="../../polaroids.html" target="_top">
<g transform="translate(170.000000,556.000000) scale(0.10000,0.10000)"
fill="#DADABC" stroke="#000" class="svghover"> 
    <rect x="40" y="0" width="450" height="400" style="fill:var(--white);stroke-width:0;stroke:rgb(0,0,0);" ry="5px" rx="5px"/>
    <path d="M487.688,0H47.812C37.246,0,28.688,8.559,28.688,19.125v497.25c0,10.566,8.559,19.125,19.125,19.125h439.875
			c10.566,0,19.125-8.559,19.125-19.125V19.125C506.812,8.559,498.254,0,487.688,0z M468.562,372.938
			c0,10.566-8.559,19.125-19.125,19.125H86.062c-10.566,0-19.125-8.559-19.125-19.125V47.812c0-10.566,8.559-19.125,19.125-19.125
			h363.375c10.566,0,19.125,8.559,19.125,19.125V372.938z"/>
    </g>
    </a>
       <!-- git -->
 <a href="../../index.html" target="_top">   
<g transform="translate(250.000000,556.000000) scale(0.600,0.6000)" class="svghover"> 
    
   <path fill="#F05133" d="M92.71,44.408L52.591,4.291c-2.31-2.311-6.057-2.311-8.369,0l-8.33,8.332L46.459,23.19
		c2.456-0.83,5.272-0.273,7.229,1.685c1.969,1.97,2.521,4.81,1.67,7.275l10.186,10.185c2.465-0.85,5.307-0.3,7.275,1.671
		c2.75,2.75,2.75,7.206,0,9.958c-2.752,2.751-7.208,2.751-9.961,0c-2.068-2.07-2.58-5.11-1.531-7.658l-9.5-9.499v24.997
		c0.67,0.332,1.303,0.774,1.861,1.332c2.75,2.75,2.75,7.206,0,9.959c-2.75,2.749-7.209,2.749-9.957,0c-2.75-2.754-2.75-7.21,0-9.959
		c0.68-0.679,1.467-1.193,2.307-1.537V36.369c-0.84-0.344-1.625-0.853-2.307-1.537c-2.083-2.082-2.584-5.14-1.516-7.698
		L31.798,16.715L4.288,44.222c-2.311,2.313-2.311,6.06,0,8.371l40.121,40.118c2.31,2.311,6.056,2.311,8.369,0L92.71,52.779
		C95.021,50.468,95.021,46.719,92.71,44.408z"/>
        
    
    </g>
     </a>
    
    
    
    
    
    
    
    
</g>




</svg>
