<?xml version="1.0" encoding="utf-8"?>
<!-- Generator: Adobe Illustrator 15.1.0, SVG Export Plug-In . SVG Version: 6.00 Build 0)  -->
<!DOCTYPE svg PUBLIC "-//W3C//DTD SVG 1.1//EN" "http://www.w3.org/Graphics/SVG/1.1/DTD/svg11.dtd">
<svg version="1.1" id="Layer_1" xmlns="http://www.w3.org/2000/svg" xmlns:xlink="http://www.w3.org/1999/xlink" x="0px" y="0px"
	 width="612px" height="792px" viewBox="0 0 612 792" enable-background="new 0 0 612 792" xml:space="preserve">
<path fill-rule="evenodd" clip-rule="evenodd" stroke="#000000" stroke-width="2.9999" stroke-linecap="round" stroke-linejoin="round" stroke-miterlimit="22.9256" d="
	M351.049,274.811l14.992-25.968l14.992-25.968h29.985h29.984l14.993,25.968l14.992,25.968l-14.992,25.968l-14.993,25.968h-29.984
	h-29.985l-14.992-25.968L351.049,274.811L351.049,274.811z M246.03,698.952l14.992-25.968l14.992-25.968H306h29.985l14.992,25.968
	l14.992,25.968l-14.992,25.968l-14.992,25.968H306h-29.985l-14.992-25.968L246.03,698.952L246.03,698.952z M246.03,577.769
	l14.992-25.968l14.992-25.967H306h29.985l14.992,25.967l14.992,25.968l-14.992,25.969l-14.992,25.968H306h-29.985l-14.992-25.968
	L246.03,577.769L246.03,577.769z M246.03,456.586l14.992-25.968l14.992-25.968H306h29.985l14.992,25.968l14.992,25.968
	l-14.992,25.968l-14.992,25.968H306h-29.985l-14.992-25.968L246.03,456.586L246.03,456.586z M246.03,335.403l14.992-25.968
	l14.992-25.968H306h29.985l14.992,25.968l14.992,25.968l-14.992,25.968l-14.992,25.968H306h-29.985l-14.992-25.968L246.03,335.403
	L246.03,335.403z M246.03,93.048l14.992-25.968l14.992-25.968H306h29.985l14.992,25.968l14.992,25.968l-14.992,25.968
	l-14.992,25.967H306h-29.985l-14.992-25.967L246.03,93.048L246.03,93.048z M246.03,214.22l14.992-25.968l14.992-25.968H306h29.985
	l14.992,25.968l14.992,25.968l-14.992,25.967l-14.992,25.968H306h-29.985l-14.992-25.968L246.03,214.22L246.03,214.22z
	 M141.011,638.36l14.993-25.968l14.992-25.968h29.985h29.985l14.993,25.968l14.992,25.968l-14.992,25.969l-14.993,25.967h-29.985
	h-29.985l-14.992-25.967L141.011,638.36L141.011,638.36z M141.011,517.178l14.993-25.968l14.992-25.968h29.985h29.985l14.993,25.968
	l14.992,25.968l-14.992,25.967l-14.993,25.969h-29.985h-29.985l-14.992-25.969L141.011,517.178L141.011,517.178z M141.011,395.994
	l14.993-25.967l14.992-25.968h29.985h29.985l14.993,25.968l14.992,25.967l-14.992,25.968l-14.993,25.968h-29.985h-29.985
	l-14.992-25.968L141.011,395.994L141.011,395.994z M141.011,153.639l14.993-25.968l14.992-25.967h29.985h29.985l14.993,25.967
	l14.992,25.968l-14.992,25.968l-14.993,25.968h-29.985h-29.985l-14.992-25.968L141.011,153.639L141.011,153.639z M141.011,274.811
	l14.993-25.968l14.992-25.968h29.985h29.985l14.993,25.968l14.992,25.968l-14.992,25.968l-14.993,25.968h-29.985h-29.985
	l-14.992-25.968L141.011,274.811L141.011,274.811z M35.993,577.769l14.993-25.968l14.992-25.967h29.985h29.985l14.992,25.967
	l14.993,25.968l-14.993,25.969l-14.992,25.968H95.963H65.978l-14.992-25.968L35.993,577.769L35.993,577.769z M35.993,456.586
	l14.993-25.968l14.992-25.968h29.985h29.985l14.992,25.968l14.993,25.968l-14.993,25.968l-14.992,25.968H95.963H65.978
	l-14.992-25.968L35.993,456.586L35.993,456.586z M35.993,214.231l14.993-25.968l14.992-25.968h29.985h29.985l14.992,25.968
	l14.993,25.968l-14.993,25.967l-14.992,25.968H95.963H65.978l-14.992-25.968L35.993,214.231L35.993,214.231z M35.993,335.403
	l14.993-25.968l14.992-25.968h29.985h29.985l14.992,25.968l14.993,25.968l-14.993,25.968l-14.992,25.968H95.963H65.978
	l-14.992-25.968L35.993,335.403L35.993,335.403z M456.067,577.769l14.992-25.968l14.992-25.967h29.985h29.984l14.993,25.967
	l14.992,25.968l-14.992,25.969l-14.993,25.968h-29.984h-29.985l-14.992-25.968L456.067,577.769L456.067,577.769z M456.067,456.586
	l14.992-25.968l14.992-25.968h29.985h29.984l14.993,25.968l14.992,25.968l-14.992,25.968l-14.993,25.968h-29.984h-29.985
	l-14.992-25.968L456.067,456.586L456.067,456.586z M456.067,214.231l14.992-25.968l14.992-25.968h29.985h29.984l14.993,25.968
	l14.992,25.968l-14.992,25.967l-14.993,25.968h-29.984h-29.985l-14.992-25.968L456.067,214.231L456.067,214.231z M456.067,335.403
	l14.992-25.968l14.992-25.968h29.985h29.984l14.993,25.968l14.992,25.968l-14.992,25.968l-14.993,25.968h-29.984h-29.985
	l-14.992-25.968L456.067,335.403L456.067,335.403z M351.049,638.36l14.992-25.968l14.992-25.968h29.985h29.984l14.993,25.968
	l14.992,25.968l-14.992,25.969l-14.993,25.967h-29.984h-29.985l-14.992-25.967L351.049,638.36L351.049,638.36z M351.049,517.178
	l14.992-25.968l14.992-25.968h29.985h29.984l14.993,25.968l14.992,25.968l-14.992,25.967l-14.993,25.969h-29.984h-29.985
	l-14.992-25.969L351.049,517.178L351.049,517.178z M351.049,395.994l14.992-25.967l14.992-25.968h29.985h29.984l14.993,25.968
	l14.992,25.967l-14.992,25.968l-14.993,25.968h-29.984h-29.985l-14.992-25.968L351.049,395.994L351.049,395.994z M351.049,153.639
	l14.992-25.968l14.992-25.967h29.985h29.984l14.993,25.967l14.992,25.968l-14.992,25.968l-14.993,25.968h-29.984h-29.985
	l-14.992-25.968L351.049,153.639z"/>
</svg>
