<?xml version="1.0" encoding="iso-8859-1" standalone="no" ?>
<?xml-stylesheet type="text/css" href="../css/svg1.css" ?>
    <?xml-stylesheet type="text/css" href="../css/main1.css" ?>
        <svg version="1.1" xmlns="http://www.w3.org/2000/svg" xmlns:xlink="http://www.w3.org/1999/xlink" viewBox="0 0 600 600" preserveAspectRatio="xMidYMid meet" id="mainGraph">

        

<rect x="0" y="0" width="600" height="600" style="fill:var(--white);stroke-width:0;stroke:rgb(0,0,0);" ry="5px" rx="5px"/>

            <g transform="translate(150,150) scale(0.5,0.5)">
                
                
                        <path  id="curve" d="M 300,300 m 0,-300 a 300,300 0 0,1 0,600 a -300,-300 0 0,1 0,-600"/>
    <text width="300">
      <textPath id="textPathTitle" xlink:href="#curve">
          OFTENBACK nicholas bacuez website
      </textPath>
    </text>
    
                
                
<circle cx="300" cy="300" r="284" style="fill:var(--blue1);stroke-width:0;stroke:var(--oftenbeige);"/>

    
<g id="" transform="translate(110.000000,507.000000) scale(0.207000,-0.207000)"
fill="var(--pink1)" stroke="var(--pink1)" stroke-width="35">
<path d="M640 1953 c-55 -10 -145 -48 -200 -84 -67 -43 -104 -88 -131 -159
-27 -71 -26 -244 1 -358 24 -100 24 -102 4 -102 -9 0 -31 -15 -50 -34 -30 -30
-34 -40 -34 -85 0 -42 5 -57 25 -76 27 -27 76 -33 94 -12 8 11 5 13 -19 9 -48
-7 -80 20 -80 68 0 56 18 87 61 107 29 14 37 23 33 38 -2 11 -11 63 -19 115
-43 270 12 433 171 511 56 28 80 34 157 37 293 14 463 -154 503 -498 7 -64 24
-96 56 -105 38 -12 58 -36 58 -71 0 -36 -22 -56 -71 -68 -15 -3 -29 -12 -32
-19 -2 -7 13 -68 34 -137 46 -147 65 -276 49 -325 -23 -68 -145 -148 -268
-174 -29 -6 -106 -11 -171 -11 -257 0 -314 56 -391 380 -38 160 -41 169 -47
154 -2 -6 12 -83 31 -170 19 -88 37 -173 41 -191 4 -18 18 -49 31 -69 14 -20
24 -37 22 -38 -2 -2 -18 -8 -35 -15 -74 -30 -155 -156 -212 -329 -33 -98 -48
-202 -33 -228 7 -12 12 4 22 67 15 103 62 257 100 324 29 50 89 114 145 152
l29 21 31 -23 c77 -58 250 -80 413 -51 110 19 189 55 247 112 49 47 64 46 115
-12 58 -67 90 -126 126 -239 26 -79 37 -134 41 -195 5 -110 12 -150 23 -150
15 0 11 138 -5 210 -19 79 -77 245 -106 301 -31 62 -109 141 -132 135 -14 -3
-17 -1 -12 12 20 48 26 89 20 136 -9 69 -40 193 -69 272 l-24 65 54 24 54 24
0 46 c0 38 -5 52 -29 76 -16 16 -39 29 -50 29 -23 0 -21 -5 -45 140 -31 191
-85 288 -210 374 -101 69 -231 106 -316 89z"/>
<path d="M980 1256 c0 -8 5 -18 10 -21 6 -3 10 1 10 9 0 8 -4 18 -10 21 -5 3
-10 -1 -10 -9z"/>
<path d="M590 1180 c0 -11 7 -20 15 -20 8 0 15 9 15 20 0 11 -7 20 -15 20 -8
0 -15 -9 -15 -20z"/>
<path d="M845 1140 c-4 -6 8 -10 28 -10 26 0 37 -6 48 -26 14 -28 10 -34 -47
-71 -18 -11 -17 -12 7 -12 29 -1 69 36 69 63 0 41 -86 87 -105 56z"/>
<path d="M970 983 c-58 -13 -165 -35 -238 -48 -121 -21 -162 -35 -162 -54 0
-4 46 2 103 15 56 12 177 38 268 58 92 20 176 36 188 36 11 0 21 5 21 10 0 16
-66 10 -180 -17z"/>
<path d="M508 137 c-13 -30 -10 -143 2 -131 6 6 10 41 8 80 -2 43 -6 62 -10
51z"/>
<path d="M1346 42 c-5 -18 -5 -36 -2 -39 7 -7 19 43 13 59 -2 7 -7 -2 -11 -20z"/>
</g>

    
    
    
<g id="" transform="translate(116.000000,500.000000) scale(0.200000,-0.20000)"
fill="#96ff00" stroke="#96ff00" stroke-width="30">
<path d="M640 1953 c-55 -10 -145 -48 -200 -84 -67 -43 -104 -88 -131 -159
-27 -71 -26 -244 1 -358 24 -100 24 -102 4 -102 -9 0 -31 -15 -50 -34 -30 -30
-34 -40 -34 -85 0 -42 5 -57 25 -76 27 -27 76 -33 94 -12 8 11 5 13 -19 9 -48
-7 -80 20 -80 68 0 56 18 87 61 107 29 14 37 23 33 38 -2 11 -11 63 -19 115
-43 270 12 433 171 511 56 28 80 34 157 37 293 14 463 -154 503 -498 7 -64 24
-96 56 -105 38 -12 58 -36 58 -71 0 -36 -22 -56 -71 -68 -15 -3 -29 -12 -32
-19 -2 -7 13 -68 34 -137 46 -147 65 -276 49 -325 -23 -68 -145 -148 -268
-174 -29 -6 -106 -11 -171 -11 -257 0 -314 56 -391 380 -38 160 -41 169 -47
154 -2 -6 12 -83 31 -170 19 -88 37 -173 41 -191 4 -18 18 -49 31 -69 14 -20
24 -37 22 -38 -2 -2 -18 -8 -35 -15 -74 -30 -155 -156 -212 -329 -33 -98 -48
-202 -33 -228 7 -12 12 4 22 67 15 103 62 257 100 324 29 50 89 114 145 152
l29 21 31 -23 c77 -58 250 -80 413 -51 110 19 189 55 247 112 49 47 64 46 115
-12 58 -67 90 -126 126 -239 26 -79 37 -134 41 -195 5 -110 12 -150 23 -150
15 0 11 138 -5 210 -19 79 -77 245 -106 301 -31 62 -109 141 -132 135 -14 -3
-17 -1 -12 12 20 48 26 89 20 136 -9 69 -40 193 -69 272 l-24 65 54 24 54 24
0 46 c0 38 -5 52 -29 76 -16 16 -39 29 -50 29 -23 0 -21 -5 -45 140 -31 191
-85 288 -210 374 -101 69 -231 106 -316 89z"/>
<path d="M980 1256 c0 -8 5 -18 10 -21 6 -3 10 1 10 9 0 8 -4 18 -10 21 -5 3
-10 -1 -10 -9z"/>
<path d="M590 1180 c0 -11 7 -20 15 -20 8 0 15 9 15 20 0 11 -7 20 -15 20 -8
0 -15 -9 -15 -20z"/>
<path d="M845 1140 c-4 -6 8 -10 28 -10 26 0 37 -6 48 -26 14 -28 10 -34 -47
-71 -18 -11 -17 -12 7 -12 29 -1 69 36 69 63 0 41 -86 87 -105 56z"/>
<path d="M970 983 c-58 -13 -165 -35 -238 -48 -121 -21 -162 -35 -162 -54 0
-4 46 2 103 15 56 12 177 38 268 58 92 20 176 36 188 36 11 0 21 5 21 10 0 16
-66 10 -180 -17z"/>
<path d="M508 137 c-13 -30 -10 -143 2 -131 6 6 10 41 8 80 -2 43 -6 62 -10
51z"/>
<path d="M1346 42 c-5 -18 -5 -36 -2 -39 7 -7 19 43 13 59 -2 7 -7 -2 -11 -20z"/>
</g>
                
                
 
                
                
                
                
             
    

   
                

<!--   
 <text x="350" y="476" class="quote">LA RIGUEUR DE LA METHODE</text>
 <text x="350" y="488" class="quote">EST FAITE DES MOYENS</text>
 <text x="350" y="500" class="quote">DONT ELLE SE PRIVE</text>  

     
 ff00b4 -->

</g>



</svg>