<svg xmlns="http://www.w3.org/2000/svg" xmlns:xlink="http://www.w3.org/1999/xlink" version="1.1" x="0px" y="0px" viewBox="0 0 100 125" style="enable-background:new 0 0 100 100;" xml:space="preserve"><style type="text/css">
	.st0{stroke:#FFFFFF;stroke-width:2;stroke-linecap:round;stroke-linejoin:round;stroke-miterlimit:10;}
</style><g><path d="M89.4,74.3l-0.4-0.2v-5c0-0.8-0.5-1.5-1.2-1.7l-4.1-1.5c-0.1-0.5-0.3-0.9-0.7-1.2l1.5-9.4c0-0.2,0-0.3,0-0.5l0-0.1   c0.1-0.1,0.3-0.3,0.4-0.5c0.6-1.1,0.7-3.3-1.4-4.7c-1.1-0.8-2.7-1.8-3.5-2.3l-6.9-11.7c0.1-0.1,0.1-0.3,0.1-0.5l0.5-3.8   c0.2-0.9-0.1-2.1-1.2-3c-0.1-0.1-0.2-0.2-0.5-0.4c-7.4-6.6-14.4-11.4-20.9-14.3c-0.2-0.1-0.5-0.2-0.7-0.2c0,0-0.1,0-0.1,0l-18.7,1   c-0.6,0-1.2,0.4-1.5,0.9l-0.8,1.4c-0.4,0.6-0.3,1.3,0,1.9l2.3,3.6l5.1,10.4l-6.5,0.8c-0.1,0-0.2,0-0.2,0c-0.3,0.1-2.7,0.7-4,3.3   c-0.6,1.3-8.5,13.7-13.7,22c-1,0.5-2.6,1.7-2.6,3.4v8.2c0,0.4,0.2,0.9,0.4,1.2c0.1,0.1,1.1,1.3,2.6,1.9   c1.1,0.5,28.9,11.4,31.4,12.4c0.5,0.3,1.9,1,3.8,1c0.2,0,0.4,0,0.6,0c2-0.2,34.9-5.3,38.7-5.9c0.1,0,0.3-0.1,0.4-0.1   c1.2-0.5,2.7-1.7,2.7-3.4v-1.4C90.3,75.3,90,74.7,89.4,74.3z M44.9,74.1c0,0-0.1,0-0.2-0.1l36.6-5l5.4,6.5c0,0,0,0,0,0   c-7.2,1.1-36.1,5.5-38.5,5.8c-1.9,0.2-2.6-0.4-2.9-0.7v-6C45.4,74.4,45.2,74.2,44.9,74.1z M87.2,69.1v5.1l-5.1-6.2   c-0.1-0.2-0.3-0.3-0.6-0.2l-39.3,5.4c-5.8-2.2-19.4-7.2-24.9-9.1l18.5,5l4.9,3.3c0.1,0.1,0.2,0.1,0.3,0.1c0.1,0,0.2,0,0.2-0.1   c0.2-0.1,0.3-0.3,0.4-0.5l2-12.3c0-0.1,0-0.3-0.1-0.4L43.1,58l3.8-0.6l0.3,1.1c0.1,0.3,0.4,0.5,0.7,0.4l7.4-1   c0.3,0,0.5-0.3,0.5-0.6V56l14.3-1.5l0.8,0.8c0.1,0.1,0.3,0.2,0.5,0.2l8-0.7c0,0,0,0,0.1,0c0,0,0.1,0,0.1,0c0,0,0.1,0,0.1-0.1   c0,0,0.1,0,0.1-0.1c0,0,0.1-0.1,0.1-0.1c0,0,0,0,0-0.1c0,0,0,0,0,0c0,0,0-0.1,0-0.1c0,0,0-0.1,0-0.1c0,0,0,0,0,0v-0.6l1.4,0l0.7,1   c0.1,0.2,0.4,0.3,0.6,0.3L81,65.5l0.9,0.5l-0.2,1L87.2,69.1z M16.1,59.4L28,41.1l1.6,3.3L16.1,59.4z M30.1,45.6l1.9,4l-13.9,9.3   L30.1,45.6z M32.6,50.8l1.5,3.2l-14.9,5.8L32.6,50.8z M44.6,46.4c0,0.1,1,2.3,2.9,2.3c0.1,0,0.3,0,0.5,0c1.7-0.3,18.1-1.7,18.2-1.7   c0.1,0,0.2,0,0.3-0.1c0.1,0,0.6-0.5,0.7-1.2c0.1-0.5,0-0.9-0.3-1.4c0.7-0.9,2.3-3.4,3.4-6.6c1.1,1.9,4.1,7.2,4.9,8.4   c0.5,0.8,0.3,1.2,0.2,1.4c-3.4,0.3-33.8,3.4-35.3,3.7c-1,0.2-1.8-1.5-1.8-1.5c-0.2-0.4-5.4-10.3-6.4-11.8c-0.1-0.2-0.2-0.4-0.1-0.4   c0.1-0.2,0.5-0.3,0.9-0.3l6.7-0.8L44.6,46.4z M80.4,49.6c0.4,0.3,0.8,0.5,1.2,0.8l-11.4,1.3v-0.7l10-1.3   C80.2,49.7,80.3,49.6,80.4,49.6z M66.5,49.6c0,0.1,0.1,0.1,0.2,0.2l1,0.6l-11.6,1.3l-1.2-0.9C58.6,50.4,62.7,50,66.5,49.6z    M53.7,52.4l0.1-0.9l1.5,1.1v0.5c-2.1,0.3-10.1,1.3-12.1,1.5c-1.9,0.2-2.9,1.6-3.3,2.6l-1.6-1.1c-0.1,0-0.1-0.1-0.2-0.1   c0.1-0.1,0.2-0.3,0.1-0.4c0-0.1,0-1.4,2.2-1.5c3.7-0.3,12.6-1.2,12.7-1.2C53.4,53,53.7,52.7,53.7,52.4z M35.2,67.5L18,62.9h18.1   L35.2,67.5z M37.1,57l-0.8,4.7H17.7L34.8,55L37.1,57z M49.5,57.5c0.8-0.6,2.5-1.4,4.6-0.6L49.5,57.5z M73.2,54.2   c0.8-0.3,1.9-0.5,3.2-0.3L73.2,54.2z M83.2,53.3l-0.5,0.1l-0.5-0.7c-0.1-0.2-0.3-0.3-0.5-0.3l-2.3,0c-0.2,0-0.3,0.1-0.4,0.2   c-0.1,0.1-0.2,0.3-0.2,0.4v0.3c-4.1-1.7-7.1,0.2-7.7,0.5l-0.3-0.3c-0.1-0.1-0.3-0.2-0.5-0.2l-15.2,1.5c-0.3,0-0.6,0.3-0.6,0.6v0.3   c-3.5-1.4-6,0.7-6.6,1.3l-0.1-0.5c-0.1-0.3-0.4-0.5-0.7-0.4L42.1,57c-0.2,0-0.4,0.2-0.5,0.3c-0.1,0.2-0.1,0.4,0,0.6l0.9,1.8   l-1.8,11.1l-4.2-2.8c0,0,0,0-0.1,0l1-5.5c0,0,0,0,0,0c0,0,0,0,0,0l0.8-4.7l1.6,1.1c0.1,0.1,0.2,0.1,0.4,0.1c0.1,0,0.1,0,0.2,0   c0.2-0.1,0.3-0.2,0.4-0.4c0,0,0.6-2.3,2.5-2.5c2.4-0.2,12.3-1.5,12.7-1.6c0.3,0,0.5-0.3,0.5-0.6v-0.8l12.4-1.4v0.9   c0,0.2,0.1,0.3,0.2,0.5c0.1,0.1,0.3,0.2,0.5,0.2L83,51.5C83.7,52.4,83.2,53.3,83.2,53.3z M78.7,48.5c0,0,0.1,0,0.2,0.1l-9.7,1.2   l-0.7-0.4c2.7-0.3,5.2-0.5,7.3-0.7c0.1,0,0.2-0.1,0.3-0.1c0.5-0.4,1.1-1.6,0.1-3.1c-0.9-1.5-5.2-9.1-5.3-9.1c0-0.1-0.1-0.1-0.2-0.2   c0.1-0.2,0.1-0.4,0.2-0.7c0,0,0,0,0,0L78.7,48.5z M31.8,16.1l18.7-1c10.8,4.7,20.2,13.9,21,14.5s0.5,1.2,0.5,1.2l-0.5,3.3   c0,0-0.1,0-0.1,0c-0.2,0-18.5,1.9-21.1,1.9c-1.3,0-1.7-0.2-1.9-0.3c0-0.1-0.1-0.2-0.2-0.3L32.6,20.1L31,17.5L31.8,16.1z M34.5,23.7   l12.8,12.4c0,0.1,0.1,0.2,0.2,0.3c0.4,0.5,1.3,0.8,2.9,0.8c2.2,0,14.5-1.2,19.3-1.7c-1.1,4.6-4,8.2-4,8.3c-0.2,0.2-0.2,0.5,0,0.8   c0.5,0.6,0.4,1,0.2,1.2c-2,0.2-16.5,1.4-18.1,1.7c-1.2,0.2-1.9-1.5-2-1.5L39,32.7L34.5,23.7z M86.9,79c0,0-36.5,5.7-38.5,5.9   c-0.2,0-0.3,0-0.5,0c-1.8,0-3-0.8-3-0.8S14.5,72.2,13.4,71.7c-1.1-0.5-1.9-1.4-1.9-1.4s0-7.1,0-8.2c0-1.1,2-2,2-2   s13.2-20.8,14.1-22.6c0.9-1.9,2.8-2.3,2.8-2.3l7.9-0.9l0.4,0.8l-6.2,0.7c-0.2,0-1.5,0.1-1.9,1c-0.2,0.3-0.3,0.9,0.2,1.6   c0.9,1.5,6.3,11.6,6.3,11.7c0.4,0.9,1.4,2.3,2.7,2.3c0.1,0,0.3,0,0.4,0c0.6-0.1,5.7-0.7,12.2-1.3l-0.1,0.8c-2,0.2-9,0.9-12.1,1.2   c-2.5,0.2-3.2,1.6-3.3,2.3l-1.6-1.4l-2-4.3c0,0,0,0,0,0l-2.5-5.3c0,0,0,0,0,0l-2.2-4.7c-0.1-0.2-0.3-0.3-0.5-0.4   c-0.2,0-0.4,0.1-0.6,0.3L13.4,61.3c0,0,0,0.1-0.1,0.1c0,0.1-0.4,1.1,0,1.9c0.2,0.4,0.6,0.8,1.4,1.1c1.3,0.4,19.6,7.1,29.4,10.7v5.8   c0,0.1,0,0.2,0.1,0.3c0,0.1,0.8,1.4,3.3,1.4c0.3,0,0.5,0,0.8,0c2.7-0.3,37.5-5.6,40.1-6c0,0.2,0,0.4,0,0.8   C88.4,78.4,86.9,79,86.9,79z"/><path d="M50.7,31.3c0.1,0.1,0.3,0.2,0.4,0.2c0,0,0,0,0.1,0l17.7-1.5c0.2,0,0.5-0.2,0.5-0.4s0-0.5-0.2-0.7   c-0.5-0.4-12.2-11-18.6-13.4c-0.1,0-0.2,0-0.3,0l-14.7,0.9c-0.2,0-0.5,0.2-0.5,0.4c-0.1,0.2,0,0.5,0.2,0.7L50.7,31.3z M50.2,16.6   c5.1,2.1,14,9.5,17,12.2l-16,1.4L37.1,17.4L50.2,16.6z"/><path d="M67.6,57.7c-2.6-1.7-6.3-0.6-8.2,2.4c-1.9,3-1.3,6.8,1.3,8.5c0.8,0.5,1.8,0.8,2.7,0.8c2.1,0,4.2-1.2,5.5-3.2   C70.8,63.2,70.2,59.4,67.6,57.7z M60.4,60.8c0.9-1.5,2.4-2.4,3.8-2.6c0,0,0,0,0,0c0.7,0.4,1.1,1.1,1.2,2c0.1,0.9-0.1,1.9-0.6,2.7   c-0.5,0.8-1.3,1.5-2.2,1.7c-0.8,0.3-1.7,0.2-2.4-0.3c-0.3-0.2-0.6-0.5-0.8-0.8C59.5,62.7,59.8,61.7,60.4,60.8z M67.8,65.6   c-1.6,2.4-4.5,3.4-6.5,2.1c-0.8-0.5-1.3-1.2-1.6-2.1c0.6,0.4,1.3,0.6,2,0.6c0.4,0,0.9-0.1,1.3-0.2c1.2-0.4,2.2-1.2,2.9-2.2   c0.7-1.1,1-2.4,0.8-3.6c-0.1-0.6-0.3-1.2-0.6-1.7c0.3,0.1,0.6,0.2,0.9,0.4C68.9,60.1,69.4,63.1,67.8,65.6z"/><path d="M77.7,56.5c-1.4-0.9-3.4-0.3-4.5,1.3c-0.5,0.8-0.7,1.7-0.6,2.5c0.1,0.9,0.6,1.6,1.3,2.1c0.5,0.3,1,0.4,1.5,0.4   c0.3,0,0.6,0,0.9-0.1c0.8-0.3,1.5-0.8,2-1.6s0.7-1.7,0.6-2.5C78.9,57.7,78.4,57,77.7,56.5z M77.4,60.5c-0.3,0.5-0.8,0.9-1.4,1.1   c-0.5,0.2-1,0.1-1.4-0.2c-0.4-0.3-0.7-0.7-0.7-1.2c-0.1-0.6,0.1-1.2,0.4-1.7c0.5-0.7,1.2-1.1,1.9-1.1c0.3,0,0.6,0.1,0.8,0.2   c0.4,0.3,0.7,0.7,0.7,1.2C77.9,59.3,77.7,59.9,77.4,60.5z"/><path d="M49.2,60.9c-1.4-0.9-3.4-0.3-4.5,1.3c-0.5,0.8-0.7,1.7-0.6,2.5c0.1,0.9,0.6,1.6,1.3,2.1c0.5,0.3,1,0.4,1.5,0.4   c0.3,0,0.6,0,0.9-0.1c0.8-0.3,1.5-0.8,2-1.6c0.5-0.8,0.7-1.7,0.6-2.5C50.4,62.1,49.9,61.3,49.2,60.9z M48.9,64.8   c-0.3,0.5-0.8,0.9-1.4,1.1c-0.5,0.2-1,0.1-1.4-0.2c-0.4-0.3-0.7-0.7-0.7-1.2c-0.1-0.6,0.1-1.2,0.4-1.7c0.5-0.7,1.2-1.1,1.9-1.1   c0.3,0,0.6,0.1,0.8,0.2c0.4,0.3,0.7,0.7,0.7,1.2C49.4,63.7,49.2,64.3,48.9,64.8z"/><path d="M41.1,60.4l-1.9-1c-0.2-0.1-0.4-0.1-0.6,0c-0.2,0.1-0.3,0.2-0.3,0.4l-0.5,2.4c-0.1,0.3,0.1,0.6,0.3,0.7l2,0.9   c0.1,0,0.2,0.1,0.3,0.1c0.1,0,0.2,0,0.3-0.1c0.2-0.1,0.3-0.3,0.3-0.4l0.4-2.3C41.5,60.8,41.3,60.5,41.1,60.4z M39.9,62.3l-0.8-0.4   l0.2-1.1l0.7,0.4L39.9,62.3z"/></g><text x="0" y="115" fill="#000000" font-size="5px" font-weight="bold" font-family="'Helvetica Neue', Helvetica, Arial-Unicode, Arial, Sans-serif">Created by Margot Gabel</text><text x="0" y="120" fill="#000000" font-size="5px" font-weight="bold" font-family="'Helvetica Neue', Helvetica, Arial-Unicode, Arial, Sans-serif">from the Noun Project</text></svg>