<?xml version="1.0" encoding="iso-8859-1" standalone="no" ?>
<?xml-stylesheet type="text/css" href="../css/svg1.css" ?>
    <?xml-stylesheet type="text/css" href="../css/main1.css" ?>

        <svg xmlns="http://www.w3.org/2000/svg" xmlns:xlink="http://www.w3.org/1999/xlink" version="1.1" x="0px" y="0px" viewBox="0 0 110 115" enable-background="new 0 0 110 115" xml:space="preserve"><g id="polaroidTitle" transform="translate(5,8)"><path d="M74.981,69.236l-2.084,0.42L84.168,83.52c0.119,0.146,0.07,0.305-0.11,0.355L60.582,90.24   c-0.18,0.047-0.423-0.031-0.543-0.18L47.605,74.771l-2.796,0.564l18.446,22.312c0.025,0.033,0.11,0.051,0.119,0.049l28.75-7.709   L74.981,69.236L74.981,69.236z M42.036,75.666l-0.128,1.422l-0.472,4.654c-0.027,0.26,0.168,0.428,0.434,0.371l6.302-1.297   l-2.557-3.096l-2.902,0.576l0.381-3.686l40.028-8.033l-1.213,6.213c0,0-0.003,0.041-0.028,0.061   c-0.026,0.021-0.061,0.037-0.061,0.037l-1.709-2.084l-2.274,0.459l2.438,2.951l1.985-0.408c0.263-0.057,0.504-0.312,0.531-0.582   l1.434-7.377c0.026-0.262-0.167-0.428-0.435-0.371l-41.094,8.352c-0.268,0.053-0.505,0.311-0.531,0.57L42.036,75.666L42.036,75.666   z M12.063,55.838c0.057-1.268,0.739-2.371,1.745-3.012l-6.861-3.764l0.088,3.875L12.063,55.838L12.063,55.838z M32.519,67.639   l5.423,3.127c0,0,0.88,0.604,1.878,0.504c0.336-0.033,17.745-3.252,40.669-7.768c2.038-0.402,4.123-0.814,6.243-1.236   c0.62-2.473,1.081-4.322,1.081-4.322s0.011-0.041,0.017-0.084c0.042-0.283-0.048-0.52-0.324-0.658   c-0.826-0.414-10.542-5.822-10.542-5.822c-0.092-0.051-0.245-0.314-0.243-0.422l0.148-23.635l-15.852,1.645v1.885   c0,0.521-0.424,0.982-0.943,1.029l-9.265,0.833c-0.522,0.047-0.945-0.338-0.945-0.86v-1.729l-21.028,2.183v26.175l6.655,3.764   L33.69,62.65l4.499,2.469c0,0,0.204,0.133,0.494,0.25c0.304,0.123,0.694,0.223,1.089,0.184c0.371-0.039,20.134-3.521,46.364-8.264   c0.621-0.111,0.79,0.816,0.171,0.93c-26.271,4.752-46.069,8.234-46.441,8.273c-0.732,0.072-1.554-0.168-2.168-0.568l-5.722-3.137   l-0.018,4.529L32.519,67.639L32.519,67.639z M31.574,61.588h-2.386v5.992h2.386V61.588L31.574,61.588z M82.515,76.928   l10.521,12.738c0.294,0.355,0.183,0.93-0.37,1.078l-29.114,7.805c-0.358,0.098-0.772-0.047-0.991-0.311L50.56,83.707   c-6.563,1.363-10.534,2.178-10.694,2.193c-0.712,0.07-1.601-0.174-2.194-0.584L8.396,64.793c0,0-0.33-0.246-1.001-1.012   c-0.835-0.953-1.16-2.752-1.148-3.998l-0.275-12.09c-0.006-0.254,0.101-0.429,0.268-0.488l12.067-7.186   c0,0,0.045-1.925,0.368-6.893c0.081-1.24,0.475-2.377,1.254-3.032c0.391-0.33,0.839-0.588,1.292-0.794l0.267,4.512   c0.007,0.442,0.214,0.629,0.37,0.689l4.384,1.79c1.367,0.561,2.028-0.193,1.989-1.52v-6.638l14.127-1.443l8.794-3.176l1.221-0.129   l17.231,2.536l0.028-4.353l9.557-1.006l-0.395,7.818c0,0-0.079,1.397-0.752,1.869L77.67,50.693   c1.517,0.844,9.514,5.291,10.258,5.664c0.708,0.354,0.996,1.104,0.798,1.828c0,0-0.589,2.363-1.33,5.316   c-1.066,4.24-2.446,9.693-2.854,11.105C84.235,75.68,83.458,76.453,82.515,76.928L82.515,76.928z M75.908,51.455L30.772,58.34   c-0.311,0.047-0.382-0.418-0.071-0.465l45.135-6.887C76.147,50.941,76.22,51.408,75.908,51.455L75.908,51.455z M49.008,50.359   c0.004-0.262,0.217-0.505,0.478-0.544l9.733-1.374c0.262-0.038,0.471,0.142,0.47,0.401l-0.033,3.306   c-0.003,0.262-0.217,0.502-0.479,0.543l-9.733,1.457c-0.261,0.039-0.47-0.143-0.468-0.4L49.008,50.359L49.008,50.359z    M61.29,46.643c0,0.522-0.424,0.986-0.944,1.039l-28.797,3.958c-0.521,0.053-0.945-0.328-0.945-0.85V37.45   c0-0.522,0.423-0.987,0.945-1.039l28.797-2.881c0.521-0.051,0.944,0.329,0.944,0.851V46.643L61.29,46.643z M60.389,33.954   l-28.797,2.879c-0.306,0.032-0.562,0.316-0.562,0.617v13.341c0,0.26,0.199,0.443,0.459,0.43l28.803-3.959   c0.305-0.031,0.572-0.316,0.572-0.618V34.381C60.864,34.113,60.662,33.927,60.389,33.954L60.389,33.954z M57.888,36.01   c-0.318,0.018-0.633,0.043-0.944,0.075c0.217,0.699,0.32,1.499,0.273,2.372c-0.177,3.186-2.301,5.583-4.461,5.643   c-1.053,0.029-2.043-0.51-2.748-1.456v1.325c0.755,0.641,1.695,1.007,2.768,0.978c2.911-0.082,5.195-3.102,5.381-6.456   C58.204,37.622,58.108,36.78,57.888,36.01L57.888,36.01z M55.877,36.219c-2.218,0.336-4.222,1.006-5.869,1.918v3.968   c0.57,0.591,1.301,0.931,2.111,0.907c2.006-0.055,3.755-2.302,3.904-5.018C56.06,37.366,56.006,36.767,55.877,36.219L55.877,36.219   z M49.481,35.491l10.913-1.11l-0.001,12.262c0,0.048-0.078,0.141-0.154,0.147L49.481,48.27V35.491L49.481,35.491z M48.537,48.401   l-17.036,2.341l0-3.89l17.036-2.044V48.401L48.537,48.401z M48.537,43.856L31.501,45.9l0-8.45c0-0.057,0.07-0.139,0.136-0.146   l16.899-1.717V43.856L48.537,43.856z M69.505,40.862c3.729-0.39,4.821-0.371,4.896-2.041l0.085-7.037V30.12l-1.243,0.148   l-0.061,5.058c-0.211,1.013-0.941,1.256-1.932,1.383v-6.266l-0.942,0.095c-0.08,2.962-0.182,6.471-0.182,6.471l-5.099,1.949   l0.004,2.374C65.894,41.249,67.299,41.093,69.505,40.862L69.505,40.862z M63.979,47.805l0.195-16.658   c0.008-0.521,0.434-0.986,0.955-1.038l9.385-0.942c0.521-0.053,0.938,0.328,0.932,0.849l-0.219,18.615   c-0.006,0.521-0.434,0.986-0.953,1.039l-9.387,1.345c-0.521,0.053-0.938-0.328-0.933-0.85L63.979,47.805L63.979,47.805z    M69.05,6.996l-1.26,11.018c-0.068,0.562,0.299,0.972,0.819,0.917l13.604-1.398c0.52-0.056,0.998-0.556,1.066-1.118l1.285-10.239   c0.069-0.562-0.297-0.973-0.818-0.916l-13.63,0.618C69.596,5.933,69.117,6.434,69.05,6.996L69.05,6.996z M38.592,6.201   c0.079-0.626-0.858-0.745-0.937-0.12l-2.172,17.052c-0.079,0.625,0.858,0.744,0.938,0.119L38.592,6.201L38.592,6.201z    M22.161,33.912c-0.006-0.026-0.013-0.071-0.013-0.119c-0.122-2.028-0.761-12.766-0.761-13.827c0-0.529,1.083-4.783,2.198-9.003   c0.903-3.412,1.805-6.727,2.105-7.825l5.586,0.268l6.974,1.882l49.103-2.356l-2.017,16.319l-49.296,5.189l-8.47-2.623v12.959   c0.021,0.519,0.007,1.102-0.659,1.009c-0.229-0.031-0.42-0.108-0.42-0.108L22.161,33.912L22.161,33.912z M78.5,10.877   c-1.073-0.184-1.98-0.126-2.781,0.048c-0.486,0.107-0.931,0.256-1.346,0.417c-0.396,0.154-0.765,0.318-1.118,0.464   c-1.231,0.507-2.169,0.769-3.737-0.841l0.47-3.864c0.019-0.154,0.16-0.265,0.213-0.282l8.849-0.403L78.5,10.877L78.5,10.877z    M80.586,5.882l-0.058,0.466l0.407-0.018l-0.567,4.615c-0.135,0.063-0.274,0.108-0.423,0.133l-0.764,6.203l-0.339,0.022l0.03-0.248   l0.14-0.009l0.734-5.949l0.583-4.74l0.058-0.469L80.586,5.882L80.586,5.882z M81.406,10.14l-0.143,0.135   c-0.106,0.102-0.212,0.197-0.315,0.284l-0.819,6.661l-0.34,0.022l0.032-0.249l0.139-0.008l0.771-6.255l0.543-4.415l0.059-0.459   l0.196-0.007l-0.056,0.458l0.407-0.019L81.406,10.14L81.406,10.14z M80.906,16.922l0.881-7.15l0.431-3.499l0.056-0.452l0.197-0.006   l-0.055,0.447l0.407-0.019l-0.365,2.971c-0.063,0.044-0.126,0.089-0.187,0.136c-0.089,0.069-0.177,0.142-0.263,0.217l-0.936,7.589   l-0.338,0.023l0.031-0.249L80.906,16.922L80.906,16.922z M83.415,5.781L83.36,6.22l0.253-0.012l-0.329,2.606   c-0.088,0.024-0.172,0.054-0.255,0.086l-1.01,8.195l-0.338,0.021l0.029-0.248l0.141-0.009l0.969-7.863l0.341-2.769l0.055-0.44   L83.415,5.781L83.415,5.781z M79.644,5.915l-0.06,0.477l0.408-0.018l-0.579,4.701l-0.116-0.022l-0.278-0.07l-0.783,6.361   l-0.338,0.021l0.03-0.248l0.14-0.009l0.76-6.168l0.561-4.54l0.057-0.479L79.644,5.915L79.644,5.915z M30.928,2.728l48.485-1.73   l5.778,1.378L38.321,4.624L31.378,2.75L30.928,2.728L30.928,2.728z"/>
</g>
</svg>
