<svg id="Layer_1" data-name="Layer 1" xmlns="http://www.w3.org/2000/svg" viewBox="0 0 911.74 845.11"><title>texas</title><path d="M270.55,85.12H480.3c.16,49.86.26,99.71.69,149.57,0,2.27,2.49,5.31,4.66,6.65a127.55,127.55,0,0,0,38.2,16c15.33,3.6,29.39,12.18,45.85,11.57,6.71-.25,12.3,1.82,14.8,9.76,6.62-8.24,14.57-8.53,23.27-6.63,25.19,5.5,50.41,10.81,75.64,16.15,2.7.57,6.48,2.2,8,1,5.33-4,6.53.3,8.32,3.33,2.23,3.79,5.28,7.75,9.44,4.54,6.34-4.89,13.39-3.84,20.21-4.36,20.17-1.53,40.56-4.91,60.53-3.35,34,2.65,67.68,8.4,98.94,23.69,5,2.47,7.12,4.79,7.13,10.5.07,37.72.49,75.43.89,113.15,0,2.67.24,5.63,1.39,8,7,14.2,14.12,28.34,21.57,42.31,3.53,6.62,7.89,12.79,11.87,19.16v15.2c-1,8.51-1.83,17-3.11,25.52-3.74,24.9-3.57,50.61-14.89,73.94-1.38,2.84-4,5.87-6.76,7.11-17.55,7.81-35.31,15.15-53,22.59a44.06,44.06,0,0,1-5.08,1.47l-.62-1.23L860.53,640H846.36l2.07-18.47c-3.94,3.07-6.25,5.45-9,6.88s-5.82,1.76-8.94,2.63c1.61,4.25,3.8,8.83,5.1,13.65,3,11.05,1.81,12.92-8.2,18.39-3.32,1.81-8.19,4.52-8.57,7.32-1.55,11.47-9.34,18.1-17.73,23.36-19.26,12.09-39.23,23.06-58.93,34.44-.23.13-.79-.31-1-.4l4-19.12-1.56-1.35c-9.07,10-18.3,10.89-27.78.52-2.66,12.57,13,10.82,13.92,20.5l-19.16,9.26-4.76-8.9-2.44,1.76c.53,3.14,1,6.27,1.59,9.41.84,4.81.24,8.49-3.22,13-14,18.12-30.4,34.73-37.6,57.34-1.12,3.53-3.14,6.77-4.18,9-4.31.42-7.42.84-10.54,1-3,.15-5.93,0-10,0,6.13,7.09,14,1.11,19.71,4.52,2.75,7.57.53,14.21-3.19,20.92-1.52,2.73-2.39,6.71-1.66,9.65,4.55,18.4,9.58,36.68,14.62,54.95.46,1.67,1.78,3.76,3.25,4.4,8.13,3.56,9.22,5.52,6.84,15.56-9.31,0-18.89.14-28.46-.11-2.11-.05-4.19-1.46-6.28-2.26-9.87-3.76-19.51-8.37-29.66-11.09-14.38-3.85-29.24-5.89-43.7-9.48-18.28-4.55-32.07-14.28-37-33.95a93,93,0,0,0-8.57-21.81c-10.58-19.26-22.06-38-32.73-57.23-19.73-35.51-42-69.63-56.81-107.83-4.36-11.27-12.09-20.35-22.91-27.36a110.77,110.77,0,0,1-26-23.93c-4.39-5.53-8.38-8.27-15-9.08-13.27-1.61-26.68-3-39.63-6.08-7.2-1.72-12.49-1.38-18.2,3.19-3.21,2.57-7.84,5.79-11.25,5.23-10.18-1.69-12.93,4.87-15.48,11.86a44.13,44.13,0,0,0-2.85,13.3c-.47,13.59-7.87,23.67-16.06,33.42-1,1.2-3.15,2.71-4.25,2.38-9.3-2.82-18.89-5.2-27.6-9.36-9-4.3-16.9-10.83-25.69-15.64-6.84-3.74-14.42-6.12-21.49-9.48-11.34-5.39-19.69-13.1-23.63-25.92-5.41-17.62-13.38-34.47-18.43-52.17-4.58-16-14.48-25.44-29.48-30.74a49.07,49.07,0,0,1-22.89-16.67c-7.77-10-16.58-19.13-24.6-28.93-3.46-4.22-7.15-6.47-12.77-6.77a17.12,17.12,0,0,1-9.95-4.27c-7.41-6.89-14.28-14.36-21.23-21.73C21,462,19,455.3,20.42,445.92H264.7Z" transform="translate(-19.98 -85.12)"/></svg>